<?xml version="1.0" encoding="UTF-8" standalone="no"?>
<!-- Created with Inkscape (http://www.inkscape.org/) -->

<svg
   xmlns:dc="http://purl.org/dc/elements/1.1/"
   xmlns:cc="http://creativecommons.org/ns#"
   xmlns:rdf="http://www.w3.org/1999/02/22-rdf-syntax-ns#"
   xmlns:svg="http://www.w3.org/2000/svg"
   xmlns="http://www.w3.org/2000/svg"
   xmlns:sodipodi="http://sodipodi.sourceforge.net/DTD/sodipodi-0.dtd"
   xmlns:inkscape="http://www.inkscape.org/namespaces/inkscape"
   version="1.1"
   width="64"
   height="64"
   id="svg3296"
   inkscape:version="0.48.5 r10040"
   sodipodi:docname="chimp2.svg">
  <sodipodi:namedview
     pagecolor="#ffffff"
     bordercolor="#666666"
     borderopacity="1"
     objecttolerance="10"
     gridtolerance="10"
     guidetolerance="10"
     inkscape:pageopacity="0"
     inkscape:pageshadow="2"
     inkscape:window-width="1280"
     inkscape:window-height="701"
     id="namedview7"
     showgrid="false"
     inkscape:zoom="3.6875"
     inkscape:cx="32"
     inkscape:cy="32"
     inkscape:window-x="0"
     inkscape:window-y="0"
     inkscape:window-maximized="0"
     inkscape:current-layer="svg3296" />
  <defs
     id="defs3298" />
  <metadata
     id="metadata3301">
    <rdf:RDF>
      <cc:Work
         rdf:about="">
        <dc:format>image/svg+xml</dc:format>
        <dc:type
           rdf:resource="http://purl.org/dc/dcmitype/StillImage" />
        <dc:title></dc:title>
      </cc:Work>
    </rdf:RDF>
  </metadata>
  <g
     id="layer1"
     transform="matrix(0.53814239,0,0,0.55507863,0.04736168,-0.01754652)">
    <path
       d="m 24.958436,63.754604 c -0.19441,-0.45044 -0.71738,-0.81696 -1.446,-1.01343 l -0.45396,-0.12241 -0.65996,-0.54224 c -0.36297,-0.29823 -0.96688,-0.81593 -1.34202,-1.15045 -0.37514,-0.33451 -0.78241,-0.63672 -0.90504,-0.67158 -0.37047,-0.10528 -0.17921,-0.27056 0.44186,-0.38182 0.69607,-0.1247 0.87074,-0.22633 0.30775,-0.17905 -0.55493,0.0466 -0.96132,0.15156 -0.96132,0.2483 0,0.17885 -0.31869,0.0648 -0.65134,-0.23302 l -0.35139,-0.31464 -0.39335,-0.0557 c -0.45776,-0.0648 -1.11053,-0.2145 -1.44626,-0.33174 -0.12918,-0.0451 -0.39521,-0.082 -0.59116,-0.082 l -0.35629,0 -0.06,-0.14 c -0.033,-0.077 0.0633,-0.39631 0.214,-0.70959 l 0.274,-0.56958 0.51504,-0.4698 0.51503,-0.4698 0.0155,-0.231 c 0.009,-0.12705 0.0439,-0.21533 0.0785,-0.19617 0.23923,0.13223 1.72641,-2.50089 1.72641,-3.056692 0,-0.12819 0.0435,-0.35961 0.0968,-0.51425 0.24245,-0.70447 0.54036,-1.73258 0.71729,-2.47549 0.0596,-0.25007 0.17327,-0.48724 0.25268,-0.52703 0.0794,-0.0398 0.24,-0.21087 0.35685,-0.38017 l 0.21246,-0.30781 0,-0.3208 c 0,-0.28819 0.37567,-1.75735 0.56799,-2.22125 0.0418,-0.10071 0.17412,-0.26552 0.29414,-0.36623 0.93983,-0.78862 1.10099,-2.24321 0.24853,-2.24321 l -0.30628,0 -0.34948,-0.23868 c -0.19221,-0.13128 -0.44597,-0.37849 -0.56391,-0.54936 l -0.21443,-0.31067 -0.19617,0 c -0.10789,0 -0.19616,-0.0412 -0.19616,-0.0916 0,-0.16372 -0.39886,-0.0965 -0.50767,0.0855 l -0.10585,0.1771 0,1.10767 0,1.10767 -0.1581,0.34041 c -0.087,0.18722 -0.35629,0.52582 -0.59853,0.75243 -0.24225,0.2266 -0.50471,0.49856 -0.58325,0.60435 -0.19991,0.26926 -0.85028,0.95645 -1.58254,1.67213 -0.34194,0.3342 -0.73006,0.77244 -0.86248,0.97387 -0.13243,0.20144 -0.34389,0.47907 -0.46991,0.61697 -0.12603,0.13789 -0.30533,0.4854 -0.39845,0.77224 -0.21401,0.65917 -0.55593,1.3171 -0.77691,1.49492 -0.0939,0.0755 -0.22443,0.33977 -0.29014,0.58718 -0.12811,0.48236 -0.16549,0.55602 -1.09577,2.159602 -0.33596,0.57911 -0.6839,1.21774 -0.77319,1.41917 -0.36201,0.81669 -0.79648,1.5747 -0.99457,1.73523 -0.29689,0.24058 -0.26786,0.29006 0.23703,0.4039 l 0.44697,0.10078 0.12628,0.27298 c 0.0694,0.15014 0.28985,0.39809 0.48978,0.55101 l 0.36351,0.27802 0.42776,0 0.42776,0 0.2971,0.22879 c 0.1634,0.12583 0.35253,0.22884 0.42028,0.2289 l 0.12318,9e-5 0.0613,0.34335 c 0.0337,0.18884 0.10514,0.40515 0.15876,0.48068 0.0536,0.0755 0.14813,0.24035 0.21001,0.36624 0.0619,0.12589 0.15358,0.30044 0.20376,0.38789 0.0502,0.0874 0.0913,0.35916 0.0913,0.60383 l 0,0.44485 -0.19803,0.16048 c -0.10892,0.0883 -0.52014,0.2362 -0.91382,0.32874 -0.39368,0.0926 -0.83273,0.23689 -0.97568,0.32076 l -0.25991,0.15249 -1.32305,-0.0321 -1.32305,-0.0321 -0.2896297,-0.19116 -0.28963,-0.19115 -0.5981602,-0.0625 c -0.32899,-0.0344 -0.81213,-0.14985 -1.07366,-0.25659 -0.85391,-0.34855 -1.50351,-0.48304 -2.82732,-0.58533 -0.33744,-0.0261 -0.77457,-0.0843 -0.97141,-0.12941 -0.19683,-0.0451 -0.68374,-0.12854 -1.08201,-0.18541 l -0.72413,-0.10342 -0.55404,-0.34195 c -0.64562,-0.39847 -1.12473003,-0.99014 -1.37217003,-1.69455 l -0.17573,-0.50024 0.0378,-0.74631 0.0378,-0.74631 0.21944,-0.15428 c 0.27505,-0.19339 0.64671003,-0.74275 0.64721003,-0.95667 1.8e-4,-0.0888 0.0454,-0.23302 0.10044,-0.32046 0.12842,-0.20407 0.51347,-1.29571 0.51347,-1.45572 0,-0.1364 0.8469,-1.530752 1.26386,-2.080862 0.14847,-0.19586 0.26993,-0.39592 0.26993,-0.44457 0,-0.0486 0.11759,-0.21359 0.2613,-0.36652 0.14371,-0.15293 0.37456,-0.47819 0.51299,-0.7228 0.13843,-0.24461 0.29408,-0.44475 0.34589,-0.44475 0.0518,0 0.26152,-0.31931 0.46604,-0.70958 0.20452,-0.39027 0.41443,-0.78169 0.46648,-0.86982 0.21988,-0.37233 0.28042,-0.49869 0.3992,-0.83332 0.0688,-0.19394 0.20724,-0.42612 0.30756,-0.51594 0.10031,-0.0898 0.35665,-0.46026 0.56965,-0.8232 l 0.38726,-0.65988 0.57033,-0.52737 c 0.31368,-0.29006 0.73138,-0.62433 0.92822,-0.74283 0.6385,-0.38438 1.2270402,-0.85461 1.2270402,-0.98038 0,-0.23266 -1.1225002,-1.48138 -1.6422702,-1.82694 l -0.52076,-0.34622 -0.19574,-0.38231 c -0.16612,-0.32447 -0.65393,-0.76219 -0.8494,-0.76219 -0.53342,0 -1.4211,-0.6316 -1.79989,-1.28066 -0.90266,-1.5467 -1.22939,-2.15931 -1.22939,-2.30508 0,-0.35284 -0.37308,-1.61405 -0.63206,-2.13672 -0.0998,-0.20143 -0.18248,-0.51881 -0.18372,-0.70528 -0.004,-0.58359 -0.43209,-1.12447 -1.29632,-1.63734 -0.13456,-0.0799 -0.39237,-0.32707 -0.57291003,-0.54936 -0.18053,-0.22229 -0.36202,-0.41746 -0.4033,-0.43371 -0.0413,-0.0163 -0.10475,-0.17122 -0.14102,-0.34436 -0.0363,-0.17315 -0.10675,-0.33739 -0.15662,-0.36498 l -0.0907,-0.0502 0,-1.94456 0,-1.94456 0.61352,-0.51846 c 0.33743003,-0.28515 0.61352003,-0.57756 0.61352003,-0.6498 0,-0.0722 0.22926,-0.352 0.50947,-0.62171 0.28022,-0.2697 0.51283,-0.53157 0.51692,-0.58193 0.0102,-0.12556 1.02991,-0.77756 1.22168,-0.78115 0.17703,-0.003 0.71727,-0.40322 0.71727,-0.53096 0,-0.0467 0.1383,-0.13614 0.30732,-0.19883 l 0.30732,-0.11398 0.22278,-0.35492 c 0.12253,-0.19521 0.25533,-0.35492 0.29511,-0.35492 0.0398,0 0.10315,-0.11331 0.14081,-0.25179 0.0963,-0.35403 0.38886,-0.93849 0.46983,-0.93849 0.0894,0 0.81896,-0.95738 1.07306,-1.40823 0.11013,-0.19542 0.34979,-0.49488 0.53257,-0.66547 0.18278,-0.1706 0.33232,-0.35031 0.33232,-0.39937 0,-0.14189 0.43218,-0.54839 0.58303,-0.54839 0.0754,0 0.49275,-0.31976 0.9274002,-0.71058 0.43465,-0.39082 0.9513197,-0.8115 1.1481597,-0.93484 0.48897,-0.30641 1.22359,-1.00673 1.24261,-1.1846 0.009,-0.0801 0.0208,-0.19132 0.0271,-0.24712 0.0174,-0.15278 0.59951,-0.95147 0.69346,-0.95147 0.045,0 0.0819,-0.0601 0.0819,-0.13349 0,-0.0734 0.1829,-0.30564 0.40644,-0.51605 0.22354,-0.21041 0.37748,-0.42452 0.34208,-0.4758 l -0.0643,-0.0932 0.11874,0.0657 0.11876,0.0657 0.28205,-0.17984 c 0.15513,-0.0989 0.4884,-0.34872 0.74059,-0.55514 0.2522,-0.20642 0.5083,-0.37531 0.56912,-0.37531 0.0608,0 0.16994,-0.0993 0.24248,-0.22067 0.17715,-0.29639 1.55721,-1.50042 1.93577,-1.68886 0.5248,-0.26122 0.86368,-0.5012902 1.47272,-1.0432596 0.32539,-0.28956 0.63215,-0.52647 0.68169,-0.52647 0.0496,0 0.10542,-0.0316 0.12416,-0.0703 0.0188,-0.0387 0.26416,-0.2024 0.54535,-0.36383 0.2812,-0.16143 0.64931,-0.40789 0.81803,-0.5477 0.16872,-0.13981 0.55613,-0.39075 0.86093,-0.55764 l 0.55416,-0.30343 0.41952,-0.0221 0.41952,-0.0221 0.68757,-0.29993 0.68756,-0.29993 0.32446,-0.40455 0.32446,-0.4045498 0.23918,0 c 0.13156,0 0.42975,-0.12361 0.66266,-0.27468 0.23291,-0.15107 0.50587,-0.27468 0.6066,-0.27468 0.10072,0 0.21156,-0.0412 0.24632,-0.0916 0.0348,-0.0503 0.17552,-0.0915 0.3128,-0.0915 0.13727,0 0.24959,-0.0346 0.24959,-0.0769 0,-0.0989 0.46531,-0.28937 0.70695,-0.28937 0.18319,0 0.86983,-0.22381 1.72046,-0.56077 0.2384,-0.0944 0.52599,-0.17171 0.63908,-0.17171 0.11309,0 0.20562,-0.0412 0.20562,-0.0916 0,-0.0504 0.15337,-0.0916 0.34083,-0.0916 0.18746,0 0.61309,-0.0448 0.94584,-0.0996 0.572483,-0.0943 0.749263,-0.14296 1.295223,-0.35662 0.12654,-0.0495 0.52916,-0.10754 0.89472,-0.12894 0.77789,-0.0455 1.44046,-0.14536 1.58492,-0.23882 0.17985,-0.11635 0.88407,-0.20157 2.3007,-0.27841 0.75923,-0.0412 1.65651,-0.12242 1.99394,-0.18051 0.33744,-0.0581 1.16863,-0.13312 1.8471,-0.16671 l 1.23358,-0.0611 0.33363,-0.25179 c 0.18349,-0.13848 0.36872,-0.25179 0.41162,-0.25179 0.0429,0 0.1263,-0.0927 0.18535,-0.206 l 0.10735,-0.20601 0.49702,-0.16839998 c 0.63822,-0.21623996 0.96442,-0.33656996 1.18584,-0.43741996 0.0976,-0.0445 0.33811,-0.0809 0.53435,-0.0809 0.19624,0 0.50746,-0.0823 0.6916,-0.18278 l 0.33479,-0.18277 3.48633,-3.1e-4 3.48633,-3e-4 0.18507,0.18312 0.18508,0.18312 1.03509,0 1.03508,0 0.16669,0.17432 c 0.0917,0.0959 0.38949,0.29005 0.66181,0.43150996 0.27231,0.14145998 0.51045,0.28961998 0.5292,0.32925998 0.0187,0.0396 0.1348,0.0721 0.2579,0.0721 0.2557,0 0.98618,0.50353 0.98618,0.67978 0,0.0644 0.13087,0.23971 0.29081,0.38958 0.54595,0.51153 1.34524,1.48876 1.34524,1.6447 0,0.0856 0.0762,0.23099 0.16923,0.32308 l 0.16923,0.16744 -0.27148,0 c -0.39608,0 -0.33179,0.13796 0.12088,0.2594 0.21581,0.0579 0.4761,0.1881 0.57843,0.28935 l 0.18606,0.18409 0.11178,-0.19592 c 0.0615,-0.10775 0.1578,-0.20054 0.21404,-0.20619 l 0.10225,-0.0103 0.0262,1.0071598 0.0262,1.00715 -0.0925,-0.12779 -0.0925,-0.12779 -0.15436,0.053 c -0.0849,0.0292 -0.40014,-0.006 -0.70053,-0.0793 -0.52721,-0.12769 -1.57365,-0.15756 -2.15829,-0.0616 l -0.28284,0.0464 0.11641,0.1256 0.11642,0.1256 -0.11478,0 c -0.0631,0 -0.11477,0.0456 -0.11477,0.10136 0,0.0557 0.0663,0.0786 0.14728,0.0507 0.081,-0.0278 0.30266,0.0438 0.49256,0.15919 0.18989,0.1154 0.48022,0.23727 0.64517,0.27084 l 0.29992,0.061 -0.30277,-0.22597 c -0.46181,-0.34467 -0.23733,-0.38003 0.38584,-0.0608 l 0.55534,0.28451 0.6522,10e-4 0.6522,0.001 -0.13266,0.0754 -0.13266,0.0753 0.143,0.10626 c 0.0786,0.0584 0.26721,0.11547 0.41904,0.12672 l 0.27604,0.0205 -0.0547,0.45435 -0.0548,0.45435 0.0908,-0.0856 c 0.0499,-0.0471 0.1129,-0.16798 0.13995,-0.26869 0.0271,-0.10072 0.0539,0.10529 0.0596,0.45779 l 0.0104,0.64092 -0.12631,0.21914 c -0.0695,0.1205294 -0.27951,0.2922096 -0.46676,0.3815196 -0.53327,0.25435 -0.72468,0.4511 -0.78621,0.80819 -0.0314,0.18193 -0.10929,0.57501 -0.17321,0.87352 l -0.11621,0.54275 -0.12986,-0.33588 c -0.0714,-0.18473 -0.11054,-0.42576 -0.0869,-0.53564 0.0236,-0.10987 0.0151,-0.29908 -0.0189,-0.42046 l -0.0619,-0.2207 -0.20783,0.0487 c -0.11431,0.0268 -0.29836,0.005 -0.40901,-0.0477 l -0.20119,-0.0964 0.0722,0.44446 0.0722,0.44446 -0.16446,-0.18312 -0.16445,-0.18312 0.15882,0.35921 c 0.19237,0.43511 0.33798,0.60216 0.52485,0.60216 0.0775,0 0.14086,0.0618 0.14086,0.13734 0,0.0755 0.0767,0.13734 0.17043,0.13734 0.0937,0 0.14158,0.0258 0.10633,0.0574 -0.0353,0.0316 0.003,0.17372 0.0852,0.31591 0.0821,0.14219 0.1493,0.33912 0.1493,0.43762 l 0,0.17909 -0.19758,-0.0463 -0.19758,-0.0463 0.0561,0.19218 0.0561,0.19217 -0.10242,0 c -0.0563,0 -0.17779,-0.103 -0.26991,-0.22889 -0.19111,-0.26116 -0.4182,-0.29766 -0.5106,-0.0821 l -0.0629,0.14683 -0.16175,-0.0556 c -0.089,-0.0306 -0.20266,-0.0329 -0.25268,-0.005 l -0.0909,0.0503 0.12572,0.1971 c 0.0692,0.10841 0.20625,0.27907 0.30467,0.37926 0.0984,0.10019 0.17894,0.21802 0.17894,0.26185 0,0.0438 0.0408,0.0571 0.0906,0.0296 0.0498,-0.0276 0.11763,0.0421 0.15062,0.15482 l 0.06,0.20498 0.30555,-0.29933 0.30555,-0.29933 -0.0581,-0.13558 -0.0581,-0.13557 0.19623,0 0.19623,0 0.26708,0.51106 0.26707,0.51107 -0.1563,0.51898 c -0.086,0.28544 -0.17381,0.67986 -0.1952,0.87648 -0.0214,0.19663 -0.10259,0.42324 -0.18046,0.50358 -0.0779,0.0803 -0.11934,0.20134 -0.0922,0.26888 l 0.0494,0.12281 -0.35058,0.33499 c -0.19282,0.18424 -0.5278,0.5719 -0.74441,0.86145 -0.2166,0.28956 -0.42068,0.52705 -0.45351,0.52776 -0.0328,7.6e-4 -0.25258,0.15711 -0.48832,0.34754 l -0.42863,0.34625 0.1941,0.10854 0.1941,0.10854 0.13227,-0.16881 0.13228,-0.16881 0.29175,0.0279 0.29175,0.028 -0.1895,-0.19919 -0.1895,-0.1992 0.16811,0.11604 0.16811,0.11603 0.16422,-0.14704 c 0.0903,-0.0809 0.16421,-0.20204 0.16421,-0.26927 l 0,-0.12222 0.21219,0.0497 0.21219,0.0497 -0.0238,-0.12693 c -0.0328,-0.17465 0.1182,-0.47793 0.28193,-0.56638 0.0745,-0.0403 0.13716,-0.16388 0.13915,-0.27468 0.002,-0.11081 0.0737,-0.30447 0.15938,-0.43036 l 0.15577,-0.2289 -0.0527,0.48392 -0.0527,0.48393 -0.19104,0.24855 c -0.10508,0.1367 -0.25328,0.39276 -0.32935,0.56901 -0.20884,0.48387 -0.34579,0.63116 -0.77934,0.83822 l -0.39623,0.18923 -0.7669,0.0909 c -0.42179,0.05 -2.06705,0.10905 -3.65614,0.13121 l -2.88924,0.0403 -0.16442,0.2247 -0.16443,0.2247 0.0686,0.29775 c 0.0377,0.16375 0.10218,0.54495 0.14319,0.84709 0.0712,0.52438 0.20261,0.84327 0.4717,1.1445 0.49374,0.55271 0.67736,1.8062 0.73433,5.01287 l 0.046,2.58656 -0.15787,0 c -0.20208,0 -0.20514,0.14728 -0.004,0.21623 0.22104,0.076 0.18869,0.3035 -0.0511,0.35965 -0.27738,0.065 -0.25953,0.24561 0.0256,0.25877 l 0.23007,0.0106 -0.17895,0.0419 c -0.19681,0.0461 -0.24042,0.25829 -0.0722,0.35138 0.0587,0.0325 0.16224,0.0179 0.23007,-0.0324 l 0.12334,-0.0915 0.23905,0.17348 0.23905,0.17348 -0.23905,0.0858 c -0.13148,0.0472 -0.33108,0.11456 -0.44356,0.1497 l -0.2045,0.0639 0.28183,0.0887 c 0.15501,0.0488 0.25582,0.1264 0.22403,0.17246 -0.0318,0.046 -0.0119,0.0837 0.0441,0.0837 0.12276,0 0.11468,0.36886 -0.0114,0.51908 l -0.0898,0.10706 0.14565,0.0761 c 0.0801,0.0418 0.17573,0.16295 0.21249,0.26914 l 0.0668,0.19308 -0.15456,0.11486 c -0.18901,0.14046 -0.11205,0.27723 0.15598,0.27723 l 0.19847,0 0,0.13734 0,0.13734 -0.20451,0 c -0.11248,0 -0.20451,0.0412 -0.20451,0.0916 0,0.0504 0.0345,0.0916 0.0767,0.0915 0.0422,-1e-5 0.0708,0.20681 0.0636,0.45961 l -0.0131,0.45965 0.19206,0.21863 c 0.10564,0.12025 0.19353,0.31514 0.19532,0.43309 0.002,0.11796 0.0708,0.29444 0.15338,0.39219 0.0826,0.0978 0.15013,0.28731 0.15013,0.42125 0,0.13393 0.0505,0.37326 0.11225,0.53185 l 0.11226,0.28834 0.14941,0 0.14941,0 -0.065,0.0941 c -0.0357,0.0518 0.0386,0.16921 0.16519,0.26099 l 0.23015,0.16688 -0.22931,0.28836 c -0.12612,0.1586 -0.18017,0.28837 -0.1201,0.28837 0.0601,0 0.10922,0.0824 0.10922,0.18312 0,0.10071 0.046,0.18311 0.10225,0.18311 0.0562,0 0.10225,0.0863 0.10225,0.19169 l 0,0.19169 0.20451,0.0479 c 0.259,0.0607 0.25635,0.0935 -0.0256,0.31638 l -0.23007,0.18186 0.23007,-0.0442 0.23007,-0.0442 0,1.12226 0,1.12226 0.11225,0.28834 c 0.0617,0.15859 0.15366,0.28834 0.20427,0.28834 0.0506,0 0.21414,0.21631 0.36342,0.48069 l 0.27142,0.48068 0.0407,1.05294 c 0.0224,0.57911 0.0792,1.13534 0.12619,1.23605 0.047,0.10072 0.14505,0.36853 0.21782,0.59514 0.0728,0.22661 0.26207,0.58919 0.42067,0.80573 0.15859,0.21655 0.28835,0.47163 0.28835,0.56685 0,0.0952 0.046,0.19858 0.10225,0.22971 0.0563,0.0311 0.10226,0.15213 0.10226,0.26891 l 0,0.21233 -0.22645,0.13463 -0.22645,0.13463 0.38157,0.0641 c 0.20986,0.0352 0.43173,0.0363 0.49304,0.002 l 0.11146,-0.0617 -0.0646,0.18233 -0.0646,0.18232 0.25969,-0.0444 c 0.14283,-0.0245 0.28473,-0.0807 0.31534,-0.12508 0.0306,-0.0443 0.12467,-0.0806 0.20903,-0.0806 0.0844,0 0.12494,0.0412 0.0902,0.0916 l -0.0632,0.0916 0.18498,-3e-4 c 0.35135,-4.6e-4 2.76066,0.93624 2.91051,1.13161 0.0368,0.048 0.20978,0.0836 0.38435,0.0792 l 0.31739,-0.008 0.15248,0.26403 c 0.44597,0.7722 -0.15909,1.24682 -1.81261,1.42187 l -0.58467,0.0619 -0.0637,0.17984 c -0.0351,0.0989 -0.0898,0.15649 -0.12169,0.12795 -0.0319,-0.0285 -0.12557,-0.002 -0.20823,0.0598 l -0.1503,0.11169 -1.71979,0.0353 -1.71979,0.0353 -0.3063,-0.21646 c -0.36839,-0.26032 -0.93163,-0.94099 -0.93163,-1.12584 0,-0.073 -0.0412,-0.15551 -0.0915,-0.18334 -0.0834,-0.0462 -0.18098,-0.47224 -0.24245,-1.05891 l -0.024,-0.2289 0.29329,-0.03 0.29328,-0.03 -0.0529,-0.29045 c -0.0291,-0.15974 -0.20263,-0.57087 -0.38564,-0.91361 l -0.33274,-0.62317 -0.58937,-0.46824 c -0.32416,-0.25752 -0.63822,-0.56422 -0.69792,-0.68154 l -0.10855,-0.21332 -0.40517,0 -0.40518,0 -0.54286,0.55212 c -0.29857,0.30366 -0.63878,0.71261 -0.75602,0.90876 -0.29372,0.49142 -1.065,1.04802 -1.065,0.76856 0,-0.0606 0.3731,-0.79943 0.72563,-1.43695 0.10706,-0.1936 0.19465,-0.42548 0.19465,-0.51528 0,-0.0898 0.069,-0.3112 0.15338,-0.49199 l 0.15338,-0.3287 0,-0.79758 c 0,-0.74988 -0.15025,-1.40573 -0.32204,-1.40573 -0.14091,0 -0.59824,0.43149 -0.59824,0.56444 0,0.0723 -0.0522,0.17814 -0.11594,0.23523 -0.0638,0.0571 -0.1524,0.46196 -0.19696,0.89968 -0.0446,0.43772 -0.13042,0.8401 -0.19082,0.89418 -0.0604,0.0541 -0.1098,0.17515 -0.1098,0.26905 0,0.29886 -0.42363,1.06575 -0.78252,1.4166 -0.19078,0.1865 -0.32449,0.39133 -0.29713,0.45518 0.0274,0.0639 0.001,0.10629 -0.0583,0.0943 -0.0594,-0.012 -0.16133,0.0589 -0.22639,0.15746 -0.0651,0.0986 -0.17582,0.23544 -0.24612,0.30411 -0.0703,0.0687 -0.12782,0.16311 -0.12782,0.20987 0,0.0468 -0.0611,0.085 -0.13579,0.085 -0.16418,0 -1.19834,0.9251 -1.54162,1.37904 l -0.2466,0.32611 -0.59736,0.28573 c -0.32854,0.15716 -0.68938,0.36063 -0.80186,0.45215 -0.31069,0.25282 -1.05347,0.66999 -1.19292,0.66999 -0.068,0 -0.37958,0.17916 -0.6924,0.39813 -0.31282,0.218972 -0.68379,0.452542 -0.82439,0.519052 -0.39909,0.18878 -1.7337,1.38508 -1.9063,1.70873 -0.17393,0.32616 -0.39238,0.5345 -1.04908,1.00054 l -0.45018,0.31948 -0.16334,-0.0615 c -0.0898,-0.0339 -0.28575,-0.0874 -0.43536,-0.11889 l -0.27201,-0.0573 -0.77709,-0.66673 -0.77709,-0.66672 -0.21476,-0.4091 c -0.11812,-0.225 -0.25765,-0.4091 -0.31007,-0.4091 -0.10137,0 -0.262,-0.10502 -0.6588,-0.43074 l -0.2459,-0.20185 10e-4,-0.34751 c 6.9e-4,-0.191132 0.13818,-0.697722 0.30539,-1.125762 0.16721,-0.42805 0.30464,-0.89156 0.30539,-1.03005 l 10e-4,-0.25179 0.20451,0 0.2045,0 0,-0.29884 0,-0.29884 0.49112,-0.20878 0.49112,-0.20879 0.16345,0.0562 c 0.17179,0.059 0.28212,0.3156 0.28446,0.66153 0.002,0.22862 -0.099,0.26256 -0.28491,0.0961 -0.0675,-0.0604 -0.12341,-0.0707 -0.12427,-0.0229 -8.6e-4,0.0478 -0.0444,0.0264 -0.0967,-0.0477 -0.0523,-0.0741 -0.12437,-0.10851 -0.1601,-0.0765 -0.0961,0.0861 0.15017,0.45419 0.26231,0.39213 l 0.096,-0.0531 -0.0609,0.1421 -0.0609,0.14209 0.40744,0 0.40743,0 0.1273,0.13734 0.12729,0.13734 -0.10625,0 c -0.0584,0 -0.12159,-0.0357 -0.14034,-0.0793 -0.0187,-0.0436 -0.12116,-0.0513 -0.22759,-0.0171 l -0.19351,0.0622 0.66897,0.29788 0.66897,0.29786 0.38546,-0.029 0.38545,-0.029 0.57063,-0.65822 c 0.31384,-0.36202 0.8007,-0.82127 1.08189,-1.02056 0.2812,-0.19928 1.01329,-0.79559 1.62688,-1.32511 l 1.11561,-0.96278 0.0468,-0.72326 0.0468,-0.72326 -0.13983,-0.13422 c -0.0769,-0.0738 -0.252,-0.27731 -0.3891,-0.45221 -0.13709,-0.17489 -0.33265,-0.37182 -0.43457,-0.43763 -0.10193,-0.0658 -0.18532,-0.19727 -0.18532,-0.29216 0,-0.0949 -0.0425,-0.19603 -0.0944,-0.22476 -0.0519,-0.0287 -0.12421,-0.17382 -0.16067,-0.32242 l -0.0663,-0.27019 -0.34629,-0.19164 c -0.49807,-0.27562 -0.83989,-0.67541 -1.00617,-1.1768 -0.25316,-0.76333 -0.66371,-1.37057 -1.35091,-1.99813 -0.36715,-0.3353 -0.92963,-0.95969 -1.24995,-1.38754 l -0.58239,-0.77792 -0.28119,-0.0958 -0.2812,-0.0958 -10e-4,-0.64373 c -10e-4,-0.72958 -0.19773,-1.40638 -0.51383,-1.77 l -0.21483,-0.24713 -0.4787,-0.152 -0.47871,-0.15201 -0.18901,-0.30236 c -0.10395,-0.1663 -0.38945,-0.50199 -0.63445,-0.74599 -0.51333,-0.51124 -0.89591,-1.17166 -1.1085,-1.91354 -0.2285,-0.79736 -1.25888,-1.91174 -1.90254,-2.05763 -0.14059,-0.0319 -0.30164,-0.0883 -0.35788,-0.12537 -0.0562,-0.0371 -0.251803,-0.0932 -0.434583,-0.12472 -0.18278,-0.0315 -0.46835,-0.0823 -0.6346,-0.11286 l -0.30228,-0.0556 -0.27213,0.19168 c -0.37686,0.26543 -0.45261,0.1821 -0.45261,-0.49793 l 0,-0.58974 -0.48851,0 -0.48852,0 -0.54005,0.54936 -0.54004,0.54936 -0.19136,0 -0.19137,0 -0.0327,0.19883 c -0.018,0.10936 -0.10169,0.21551 -0.18605,0.23587 l -0.15338,0.037 0.13873,-0.0871 0.13874,-0.0871 -0.10395,-0.0575 c -0.0906,-0.0501 -0.42915,0.0119 -0.42915,0.0786 0,0.0134 0.18405,0.20471 0.40901,0.42507 0.22496,0.22036 0.40901,0.44919 0.40901,0.5085 0,0.0593 0.11504,0.18887 0.25564,0.2879 0.14059,0.099 0.25563,0.24006 0.25563,0.31341 0,0.0734 0.13488,0.22592 0.29974,0.33905 l 0.29975,0.20569 -0.055,0.12846 c -0.0303,0.0707 -0.004,0.12846 0.0581,0.12846 0.0623,0 0.11319,0.0552 0.11319,0.12264 0,0.0675 0.12006,0.17163 0.2668,0.2315 l 0.26681,0.10885 -0.0528,0.18065 c -0.029,0.0994 -0.0139,0.15912 0.0337,0.13282 0.0475,-0.0263 0.12377,0.0102 0.16941,0.0812 0.0456,0.071 0.175,0.1464 0.28748,0.1676 0.11248,0.0212 0.193,0.0876 0.17894,0.14754 -0.0141,0.06 0.0258,0.10901 0.0886,0.10901 l 0.11418,0 -0.0535,-0.18312 -0.0535,-0.18311 0.12055,0 c 0.0663,0 0.20583,0.14178 0.31006,0.31508 0.10422,0.1733 0.25273,0.33681 0.33001,0.36336 0.0773,0.0266 0.14051,0.14817 0.14051,0.27026 0,0.12209 0.0605,0.24278 0.13455,0.26821 0.074,0.0254 0.19675,0.28734 0.27279,0.58204 0.076,0.2947 0.18217,0.58731 0.23586,0.65026 l 0.0976,0.11445 -0.16911,0 c -0.093,0 -0.19265,-0.0549 -0.22142,-0.12208 -0.0288,-0.0671 -0.10868,-0.12208 -0.17757,-0.12208 -0.0689,0 -0.24719,-0.0274 -0.39624,-0.0609 l -0.27101,-0.0609 0.0198,0.31506 c 0.0109,0.17328 0.0523,0.34414 0.092,0.37969 0.0397,0.0356 0.045,0.16153 0.0118,0.27995 l -0.0603,0.21531 0.16989,0 c 0.0934,0 0.33478,0.10032 0.5363,0.22294 l 0.36642,0.22295 0.14853,-0.133 0.148533,-0.133 -0.239173,-0.18917 -0.23918,-0.18917 0.16895,0.0471 c 0.22405,0.0625 0.316723,-0.0313 0.17838,-0.18053 -0.0611,-0.0659 -0.0922,-0.17049 -0.0691,-0.23244 0.0231,-0.062 0.153963,0.0912 0.290873,0.34027 l 0.24893,0.45291 0,2.35257 0,2.35257 -0.33233,0.30702 c -0.182773,0.16885 -0.332323,0.33473 -0.332323,0.36861 0,0.0339 -0.11503,0.28678 -0.25563,0.56202 -0.1406,0.27523 -0.25564,0.52539 -0.25564,0.5559 0,0.0305 -0.0977,0.14645 -0.21706,0.25765 -0.31822,0.29639 -0.90772,1.13345 -0.90772,1.28891 0,0.0738 -0.0967,0.33327 -0.21485,0.57664 l -0.21486,0.4425 -0.0552,0.75536 c -0.0304,0.41546 -0.0926,0.75537 -0.13823,0.75537 -0.11068,0 -0.29587,0.61259 -0.29658,0.98106 -3.4e-4,0.16191 -0.0719,0.49152 -0.1591,0.73248 -0.14912,0.41211 -0.20769,0.54897 -0.45196,1.05613 -0.15102,0.31357 -0.92331,2.478832 -0.92331,2.588682 0,0.0531 -0.087,0.24932 -0.19336,0.4361 -0.10635,0.18678 -0.22146,0.43984 -0.2558,0.56235 l -0.0624,0.22276 -0.57942,0.39549 c -0.31869,0.21752 -0.67522,0.54764 -0.7923,0.7336 -0.11708,0.18597 -0.53497,0.64846 -0.92864,1.02777 -0.39368,0.37931 -0.71598,0.75911 -0.71624,0.84401 l -5.1e-4,0.15435 -0.40856,0.11714 -0.40855,0.11713 0.40902,-0.0546 c 0.22495,-0.03 0.46994,-0.12029 0.54441,-0.20054 0.0745,-0.0803 0.11042,-0.10045 0.0799,-0.0449 l -0.0555,0.10106 0.25321,0.10331 c 0.13926,0.0568 0.325,0.23811 0.41275,0.40289 l 0.15955,0.29959 0.73439,0.32936 c 0.40391,0.18115 0.98746,0.40176 1.29678,0.49025 0.63819,0.18257 1.91057,0.73103 2.1602,0.93115 0.0914,0.0733 0.33301,0.15751 0.53683,0.18713 0.5444,0.0791 0.49982,0.25415 -0.18048,0.70858 -0.21871,0.1461 -0.6424,0.47788 -0.94152,0.7373 -0.29912,0.25942 -0.64933,0.51705 -0.77825,0.57252 -1.40582,0.60494 -1.94235,0.7583 -2.65275,0.7583 l -0.6032,0 -0.0889,-0.20601 z m -3.08389,-4.6603 c 0.1362,-0.0177 0.27022,-0.0939 0.29783,-0.16946 l 0.0502,-0.13734 -0.14445,0.10182 c -0.0794,0.056 -0.27286,0.12932 -0.42982,0.16292 l -0.28538,0.0611 0.0681,0.0986 0.0681,0.0987 0.0639,-0.0921 c 0.0352,-0.0507 0.17534,-0.10656 0.31153,-0.12422 z m 1.59294,-0.35258 0.2045,-0.0787 -0.2045,0.004 c -0.11248,0.002 -0.34255,0.0359 -0.51127,0.0743 l -0.30676,0.0699 0.30676,0.004 c 0.16872,0.002 0.39879,-0.031 0.51127,-0.0743 z m 37.315783,-7.414052 0.26229,-0.0893 0,-0.18538 0,-0.18539 -0.24427,0 -0.24428,0 0.0142,-0.15925 0.0142,-0.15924 -0.23007,-0.0914 c -0.12653,-0.0503 -0.23007,-0.14195 -0.23007,-0.20377 0,-0.1888 -0.34652,-0.29205 -0.79811,-0.23781 -0.48387,0.0581 -0.51226,0.10188 -0.22933,0.35348 0.41814,0.37184 0.74683,0.53661 1.02744,0.51506 l 0.15338,-0.0118 -0.12781,0.0507 c -0.26554,0.10543 -0.096,0.34049 0.35123,0.48709 0.0104,0.003 0.13694,-0.034 0.28119,-0.0831 z m -41.235023,-9.30974 c 0.10285,-0.0833 0.18699,-0.18249 0.18699,-0.22033 0,-0.1288 -0.36754,0.0167 -0.49163,0.19462 l -0.12362,0.17724 0.12063,0 c 0.0663,0 0.20478,-0.0682 0.30763,-0.15153 z m 27.786853,-5.4007 c 0.0234,-0.0181 -0.12883,-0.0329 -0.33836,-0.0329 l -0.38096,0 0.0634,0.0919 0.0634,0.0919 0.27493,-0.059 c 0.15121,-0.0325 0.2941,-0.0738 0.31753,-0.0919 z m -15.942983,-0.49357 c 0,-0.0519 -0.0717,-0.11906 -0.15926,-0.14915 l -0.15926,-0.0547 0.0538,-0.12553 c 0.0296,-0.069 0.008,-0.12552 -0.0485,-0.12552 -0.16872,0 -0.23001,0.26726 -0.0948,0.41318 0.14433,0.15571 0.40794,0.18269 0.40794,0.0417 z m 14.826723,-2.28611 c -0.11453,-0.19162 -0.30676,-0.249 -0.30676,-0.0916 0,0.0504 0.0575,0.0957 0.12781,0.10069 0.0703,0.005 0.0128,0.0421 -0.12781,0.0824 l -0.25564,0.0733 0.33592,0.009 0.33593,0.009 -0.10945,-0.18312 z m -0.58354,-1.52705 c -0.0285,-0.0666 -0.11021,-0.12102 -0.18152,-0.12102 l -0.12966,0 0,0.22253 0,0.22252 0.18152,-0.1015 c 0.0998,-0.0558 0.15819,-0.15597 0.12966,-0.22253 z m 8.2842,-1.89333 c 0.0388,0.0348 0.0706,0.0151 0.0706,-0.0436 0,-0.0588 -0.092,-0.10682 -0.2045,-0.10682 l -0.20451,0 0.008,0.29757 0.008,0.29757 0.12562,-0.25395 c 0.0691,-0.13968 0.15738,-0.22551 0.1962,-0.19075 z m -0.18505,-0.55691 0.20451,-0.0727 -0.12215,-0.041 c -0.0672,-0.0226 -0.21802,0.005 -0.33519,0.061 l -0.21304,0.10209 0.0668,0.0967 0.0668,0.0967 0.0639,-0.0851 c 0.0352,-0.0468 0.15593,-0.11782 0.26841,-0.15778 z m 5.26604,-9.84819 0,-0.18312 -0.19847,0 c -0.10916,0 -0.22841,-0.0434 -0.265,-0.0964 -0.0366,-0.053 -0.11621,-0.0816 -0.17694,-0.0634 -0.1299,0.0388 -0.18297,0.43451 -0.0583,0.43451 0.0468,0 0.0852,-0.05 0.0852,-0.11118 l 0,-0.11118 0.17529,0.15696 c 0.23514,0.21055 0.43823,0.19843 0.43823,-0.0262 z m 2.90328,-9.20921 c 0.0341,-0.0797 0.0604,-0.21356 0.0584,-0.29757 l -0.004,-0.15274 -0.14613,0.2289 c -0.0804,0.12589 -0.14777,0.2598 -0.14976,0.29757 -0.007,0.12808 0.17865,0.0695 0.24107,-0.0762 z m 0.36883,-4.3275796 c 0,-0.0426 -0.0969,-0.17655 -0.21532,-0.29756 -0.11842,-0.12101 -0.25635,-0.30243 -0.30651,-0.40314 -0.21436,-0.4303998 -0.529,-0.7782598 -0.70394,-0.7782598 -0.0636,0 -0.0872,-0.0412 -0.0524,-0.0916 0.0348,-0.0504 0.0221,-0.0916 -0.0281,-0.0916 -0.0502,0 -0.0912,-0.13161 -0.0912,-0.29248 0,-0.16086 -0.0533,-0.30838 -0.1184,-0.32782 -0.0651,-0.0194 -0.19579,-0.18653 -0.29037,-0.37132 -0.24186,-0.47255 -0.94839,-1.2483 -1.3125,-1.44108 -0.16871,-0.0893 -0.34176,-0.21427 -0.38454,-0.27765 -0.13318,-0.19729 -1.49865,-0.96753 -1.60798,-0.90703 -0.057,0.0316 -0.10367,0.015 -0.10367,-0.0367 0,-0.0517 -0.069,-0.0704 -0.15338,-0.0414 -0.24069,0.0827 -0.17953,0.21623 0.0991,0.21623 l 0.25242,0 -0.0589,0.13734 -0.0589,0.13733 0.1132,0 c 0.0623,0 0.11319,-0.0412 0.11319,-0.0916 0,-0.37555 0.65534,0.47786 0.68551,0.89271 l 0.0216,0.29757 -0.1235,0.002 c -0.0679,10e-4 0.072,0.0815 0.31107,0.17864 0.43654,0.17743 0.54439,0.31671 0.30676,0.39619 l -0.12782,0.0428 0.20451,0.0704 c 0.11248,0.0387 0.28503,0.13228 0.38345,0.20797 0.0984,0.0757 0.17964,0.10032 0.18051,0.0547 0.002,-0.10282 0.19921,0.16196 0.20137,0.27028 8.6e-4,0.0432 -0.0675,0.0547 -0.15181,0.0258 -0.24173,-0.0831 -0.17314,0.0618 0.11984,0.2531 l 0.2668,0.17421 0.20008,-0.11188 c 0.21447,-0.11994 0.25159,-0.10569 0.42548,0.16324 0.28341,0.43835 0.7256,1.0960798 0.95191,1.4159298 l 0.24819,0.35076 0.1689,-0.058 c 0.0929,-0.0319 0.13542,-0.0281 0.0945,0.009 -0.0409,0.0366 0.0525,0.14155 0.20762,0.23313 0.3247,0.19172 0.33315,0.19401 0.33315,0.0902 z m -2.04832,-1.5018498 c -0.002,-0.0629 -0.0593,-0.18039 -0.12791,-0.26098 l -0.12466,-0.14654 -0.20441,0.0643 -0.20441,0.0643 0.23007,0.0655 c 0.12653,0.036 0.23007,0.12452 0.23007,0.19666 0,0.0721 0.046,0.13117 0.10225,0.13117 0.0562,0 0.10079,-0.0515 0.099,-0.11445 z m -7.66319,-1.39385 c -0.22396,-0.21346 -0.90745,-0.41991 -1.35156,-0.40825 l -0.23592,0.006 0.20451,0.0793 c 0.11248,0.0436 0.37018,0.10337 0.57268,0.13273 l 0.36818,0.0534 0.29647,0.26674 c 0.34402,0.30952 0.47971,0.18828 0.14564,-0.13013 z m -22.920323,30.1034894 -0.14034,-0.15448 0.17234,0.0578 0.17233,0.0578 0.0497,-0.1093 c 0.0273,-0.0601 0.0533,-0.0166 0.0577,0.0967 0.01,0.24455 -0.11733,0.26553 -0.31173,0.0515 z m 0.52431,-0.21176 0,-0.18312 -0.15338,0 c -0.16535,0 -0.21161,-0.23165 -0.0627,-0.31404 0.12186,-0.0674 0.2863,0.12203 0.37234,0.429 l 0.0704,0.25128 -0.11334,0 c -0.0623,0 -0.11333,-0.0824 -0.11333,-0.18312 z m -0.92028,-0.68214 0,-0.22435 -0.17895,-0.0933 -0.17894,-0.0933 0.26415,-0.003 c 0.33031,-0.003 0.43207,0.0817 0.28592,0.23942 -0.062,0.0669 -0.0861,0.18403 -0.0534,0.26021 0.0326,0.0762 0.0148,0.1385 -0.0397,0.1385 -0.0545,0 -0.099,-0.10095 -0.099,-0.22434 z m 33.137673,-16.62259 c 8.6e-4,-0.17626 0.069,-0.52647 0.1516,-0.77826 l 0.15019,-0.4578 -0.0395,0.60553 c -0.0218,0.33303 -0.09,0.68325 -0.1516,0.77825 l -0.11204,0.17273 0.001,-0.32045 z"
       id="path3102"
       style="fill:#000000"
       inkscape:connector-curvature="0" />
  </g>
</svg>
