<?xml version="1.0" encoding="UTF-8" standalone="no"?>
<!-- Created with Inkscape (http://www.inkscape.org/) -->

<svg
   xmlns:dc="http://purl.org/dc/elements/1.1/"
   xmlns:cc="http://creativecommons.org/ns#"
   xmlns:rdf="http://www.w3.org/1999/02/22-rdf-syntax-ns#"
   xmlns:svg="http://www.w3.org/2000/svg"
   xmlns="http://www.w3.org/2000/svg"
   version="1.1"
   width="64"
   height="64"
   id="svg2985">
  <defs
     id="defs2987">
    <clipPath
       id="clipPath4058">
      <rect
         width="64.727272"
         height="45.63636"
         x="-0.72727275"
         y="9.0909081"
         id="rect4060"
         style="fill:#a02c2c;fill-opacity:0.50196078;fill-rule:evenodd;stroke:none" />
    </clipPath>
  </defs>
  <metadata
     id="metadata2990">
    <rdf:RDF>
      <cc:Work
         rdf:about="">
        <dc:format>image/svg+xml</dc:format>
        <dc:type
           rdf:resource="http://purl.org/dc/dcmitype/StillImage" />
        <dc:title></dc:title>
      </cc:Work>
    </rdf:RDF>
  </metadata>
  <g
     id="layer1">
    <path
       d="m 53.488111,57.072575 c -0.105185,-6.4e-4 -0.26126,-0.275726 -0.346817,-0.611305 -0.08556,-0.335578 -0.152176,-0.731962 -0.148034,-0.880852 l 0.0075,-0.270709 0.373707,0.679157 0.373708,0.679157 0.01333,-0.609119 0.01333,-0.609118 0.264584,0.0017 c 0.145522,8.84e-4 0.264224,0.05679 0.263783,0.124241 -4.41e-4,0.06745 -0.140999,0.432114 -0.312354,0.810368 -0.171356,0.378254 -0.397618,0.687211 -0.502808,0.686572 z m 1.064905,0.0064 -0.259544,-0.0016 0.0028,-0.422095 0.0028,-0.422092 0.263491,0.168935 0.263492,0.168934 0.0039,-0.60259 0.0039,-0.602589 0.162972,0.168881 0.16297,0.168886 -0.173608,0.688441 -0.173604,0.688442 -0.259544,-0.0016 z m 1.25319,-0.46621 -0.118635,0.608479 0.0079,-1.218348 0.0079,-1.218348 0.11068,0.60987 c 0.06089,0.335428 0.05732,0.883686 -0.0079,1.218347 z m 1.067079,0.461272 -0.595188,-0.02265 0.489956,-0.193811 0.489959,-0.193811 -0.420186,-0.361398 C 56.606724,56.103643 56.418337,55.834096 56.41919,55.703422 l 0.0016,-0.237594 0.595286,0.0078 0.595286,0.0078 -0.398748,0.284797 -0.39875,0.2848 0.329833,0.13933 0.329832,0.139334 -0.0026,0.383551 -0.0026,0.383556 -0.59519,-0.02265 z m 1.750732,-0.0018 -0.564659,0.02798 -0.117005,-0.474531 c -0.06435,-0.260993 -0.06593,-0.626521 -0.0034,-0.812287 l 0.113479,-0.337755 0.507117,0.003 0.50712,0.003 -0.0027,0.406116 -0.0027,0.406117 -0.280198,-0.0018 -0.280198,-0.0018 0.165288,-0.269751 0.165287,-0.269751 -0.280197,-0.0018 -0.280199,-0.0018 -0.0034,0.521636 -0.0034,0.521636 0.462213,0.126629 0.462212,0.126631 -0.564659,0.02798 z m 1.892209,0.04291 -0.656419,-0.004 -0.167069,-0.700819 -0.167069,-0.700815 0.413405,-0.417731 0.413405,-0.41773 0.482139,0.217232 0.482139,0.217233 -0.529981,0.121577 c -0.29149,0.06686 -0.609093,0.248254 -0.705784,0.403079 l -0.175802,0.281501 0.133751,0.363811 0.133751,0.363808 0.368567,0.0023 0.368568,0.0023 0.0016,-0.248183 c 8.9e-4,-0.136498 -0.146808,-0.310536 -0.328219,-0.386749 l -0.329838,-0.138569 0.463161,-0.01854 0.463161,-0.01857 -0.0035,0.541488 -0.0035,0.541487 -0.656418,-0.004 z m 2.075717,-0.0188 -0.565487,0.02797 -0.125076,-0.880714 c -0.06879,-0.484392 -0.0721,-0.971771 -0.0073,-1.083064 0.06475,-0.111298 0.378567,-0.197063 0.697371,-0.190597 l 0.579644,0.01173 -0.496686,0.291138 -0.496682,0.291138 0.360775,0.261925 0.36078,0.261925 -0.331625,0.135312 c -0.182394,0.07443 -0.332296,0.238064 -0.333116,0.363644 -8.2e-4,0.125583 0.206505,0.285316 0.460723,0.354959 l 0.462213,0.126631 -0.565488,0.02797 z m 1.557471,0.0094 -0.595518,0.02779 0.0071,-1.082975 0.0071,-1.082977 0.529167,0.0031 0.529167,0.0031 -0.0018,0.286723 -0.0018,0.286722 -0.245283,-0.157262 -0.245286,-0.157262 -0.157824,0.257571 -0.157826,0.257572 0.466764,0.281997 0.466764,0.281996 -0.463075,0.0054 -0.463074,0.0054 -0.0016,0.250893 -0.0016,0.250891 0.462214,0.126629 0.462213,0.126632 -0.595518,0.02779 z m 1.308296,0.03936 -0.212856,-0.0013 -0.05537,-1.083355 -0.05539,-1.083357 0.275302,0.0017 0.275302,0.0017 0.0054,0.609232 0.0054,0.60923 0.35904,-0.653103 0.359043,-0.653104 -0.03523,1.095535 -0.03522,1.095537 -0.324773,-0.442437 -0.324774,-0.44244 -0.01143,0.473753 -0.01143,0.473748 -0.212855,-0.0013 z m -13.805208,-2.393651 -1.975369,0.171834 -0.499268,-0.38683 -0.499267,-0.386828 0.217995,-0.785577 c 0.119899,-0.432067 0.220138,-1.455683 0.222754,-2.2747 l 0.0047,-1.489121 -0.562224,-1.323435 -0.562228,-1.323439 -1.864289,-1.992459 -1.86429,-1.99246 -1.089666,-0.752534 c -0.599284,-0.413866 -1.415076,-1.057827 -1.812839,-1.431 l -0.723206,-0.678494 -0.0029,0.455692 c -0.0016,0.250631 -0.249558,1.169534 -0.550938,2.042013 -0.30138,0.872474 -0.610356,1.876259 -0.686611,2.230634 -0.07626,0.35437 -0.312154,1.661414 -0.524212,2.904535 l -0.385565,2.260221 -0.415424,0.463781 c -0.228485,0.25508 -0.412845,0.576044 -0.409692,0.713252 0.0032,0.137209 0.356485,0.730203 0.785183,1.317766 l 0.77945,1.068299 -0.0032,0.493256 -0.0032,0.493259 -1.785923,-0.01331 c -0.982257,-0.0074 -2.407635,-0.09347 -3.167507,-0.191557 l -1.381581,-0.178357 -0.142343,-0.469672 -0.142341,-0.46967 0.294826,-0.778052 c 0.162155,-0.427927 0.493952,-1.000354 0.737327,-1.272063 l 0.442503,-0.494009 0.07625,-1.127864 c 0.04193,-0.620323 0.159909,-2.639253 0.26218,-4.486509 l 0.185946,-3.358647 -0.458766,-2.669252 -0.458765,-2.669251 -0.546231,0.164992 c -0.300428,0.09075 -1.524448,0.568108 -2.720048,1.060809 l -2.173817,0.895818 -1.771994,0.27861 -1.771998,0.278609 -3.338169,-0.0027 -3.33817,-0.0027 -0.832847,0.925082 -0.832847,0.925083 -0.186447,1.815374 -0.186445,1.815377 0.379498,2.904498 0.379497,2.904497 0.793982,1.136886 0.793984,1.136887 -0.0032,0.482618 -0.0032,0.482621 -0.557886,0.177425 -0.557882,0.177424 -2.593217,-0.205777 -2.593218,-0.205774 -0.139434,-0.56078 -0.139433,-0.560774 0.275685,-2.134486 0.275687,-2.134479 -0.129682,-1.00012 C 12.101,46.57581 11.867998,45.300178 11.654543,44.291142 l -0.388131,-1.83451 -0.447373,-0.742627 c -0.246055,-0.408447 -0.472226,-0.782367 -0.502601,-0.830936 -0.03037,-0.04857 -0.5237156,0.224712 -1.0963111,0.607293 l -1.041081,0.695602 -0.5613922,1.007165 C 7.3088885,43.74707 6.6232709,45.279074 6.094058,46.597585 l -0.9622133,2.397385 0.00289,0.845946 0.00289,0.845942 0.3850308,0.527909 c 0.2117692,0.290349 0.3836832,0.734733 0.3820336,0.987519 l -0.003,0.459609 -0.9310275,0.172857 -0.9310284,0.172856 -1.5676157,-0.191085 -1.56746208,-0.191132 -0.54081421,-0.522108 -0.54081455,-0.522109 0.0150468,-0.869316 0.0150468,-0.869313 0.38254127,-0.674562 C 0.44595926,48.796972 0.62566727,48.249784 0.63491247,47.95201 0.64416447,47.654236 0.82831932,47.107076 1.0441597,46.7361 1.2600001,46.365122 1.8237137,45.27199 2.2968567,44.306916 2.7699993,43.34184 3.1340068,42.457034 3.1057622,42.340679 3.0775172,42.22433 3.2200457,41.798753 3.4224925,41.394959 L 3.790577,40.660796 3.9751077,38.766634 C 4.0766004,37.724846 4.3014587,36.302 4.4747942,35.604754 L 4.789994,34.337061 4.3525426,31.469604 3.9150911,28.602145 4.1102683,26.239649 4.3054452,23.877151 4.7055935,22.661187 C 4.9256747,21.992404 5.4496893,20.743709 5.87007,19.886306 l 0.7643279,-1.558913 1.0862047,-1.301265 1.086203,-1.301266 1.1206272,-0.800244 c 0.6163452,-0.440134 1.5985742,-1.057012 2.1827282,-1.370838 0.584155,-0.313825 1.838272,-0.913018 2.786927,-1.33154 l 1.724827,-0.760949 1.805746,-0.342449 1.805746,-0.342451 1.634932,0.195903 c 0.899214,0.107747 2.519023,0.437009 3.599577,0.731695 l 1.964642,0.535794 2.529951,0.0017 c 1.39147,8.29e-4 3.780853,-0.105486 5.309738,-0.236335 1.528886,-0.130857 3.412702,-0.312193 4.186264,-0.402972 l 1.406473,-0.165051 0.961642,-1.162092 0.961637,-1.1620916 1.740833,0.1416256 c 0.957458,0.077889 2.394819,0.2767047 3.194138,0.4418063 0.79932,0.1651005 2.188848,0.5420487 3.087839,0.8376647 l 1.634534,0.537485 2.06473,0.236644 c 1.135604,0.130154 2.29314,0.333564 2.572306,0.452025 0.279161,0.118456 0.709881,0.425031 0.957151,0.681272 l 0.449585,0.465893 0.266985,0.912916 c 0.14684,0.502104 0.340579,1.379457 0.430529,1.949672 0.08996,0.570215 0.370846,1.424799 0.624216,1.899074 0.253364,0.474275 1.007835,2.723395 1.676598,4.998045 0.668765,2.274647 1.268338,4.532323 1.332391,5.017055 0.06405,0.484732 0.112076,2.176351 0.106728,3.759153 l -0.0097,2.877821 -0.419448,2.916326 -0.419445,2.916329 -0.808665,3.00036 c -0.444767,1.650201 -0.950123,3.668498 -1.123013,4.485107 -0.17289,0.816609 -0.394729,2.519892 -0.492974,3.785076 l -0.178627,2.300329 -0.730121,0.08143 -0.730121,0.08143 -0.226158,-0.628747 -0.226159,-0.628751 0.117395,-2.842213 0.117394,-2.842212 0.531569,-4.058092 0.531567,-4.058094 -0.04576,-2.536024 -0.04576,-2.536026 -0.420258,-0.244131 -0.420264,-0.244131 -0.25523,-0.879414 c -0.140311,-0.483684 -0.450087,-1.550723 -0.688329,-2.371203 l -0.433167,-1.491782 -0.833801,-0.550234 -0.833802,-0.550231 -0.07888,-0.741396 -0.07888,-0.741397 -1.283704,-0.0078 c -0.706039,-0.0043 -1.457943,-0.07744 -1.670901,-0.162585 l -0.387192,-0.154788 -0.368676,1.165528 -0.368677,1.165528 -1.147657,-0.0069 -1.147654,-0.0069 -0.510165,0.636098 -0.510161,0.636094 -0.0047,0.849928 c -0.0026,0.467461 0.17342,1.947567 0.391118,3.289126 l 0.395815,2.439198 1.17616,3.120823 c 0.64689,1.716453 1.72418,4.281629 2.393977,5.700391 l 1.217818,2.579566 -0.0057,1.820371 -0.0057,1.820376 0.979852,1.039886 0.97985,1.039884 -0.0039,0.604459 -0.0039,0.60446 -0.607059,0.231903 c -0.333882,0.127544 -1.495974,0.309226 -2.582427,0.403735 z M 5.7895336,31.546762 6.0557951,31.086333 5.8282798,29.380959 5.6007647,27.675586 l -0.038747,2.165804 -0.038747,2.165802 0.2662615,-0.46043 z m 56.8132394,-0.527155 0.148433,-0.149982 -1.538922,-1.703567 c -0.846409,-0.93696 -1.566575,-1.746394 -1.600368,-1.79874 -0.03379,-0.05234 -0.189425,-0.01534 -0.345852,0.08223 l -0.284414,0.17741 0.687841,0.935171 0.687847,0.935172 0.365471,0.0023 0.365472,0.0023 -0.06836,0.338029 -0.06835,0.338027 0.396874,0.0025 0.396876,0.0025 0.354511,0.493482 0.354511,0.493484 0.148427,-0.149983 z m -2.959101,-3.151164 c -0.07277,-4.42e-4 -0.131894,-0.06172 -0.131408,-0.136175 4.86e-4,-0.07446 0.06042,-0.13501 0.133174,-0.134569 0.07277,4.43e-4 0.131895,0.06172 0.13141,0.136176 -4.86e-4,0.07446 -0.06042,0.13501 -0.133176,0.134568 z M 5.9796625,27.181504 6.1572294,27.002079 5.9820184,26.820511 5.8068072,26.638946 l -0.00235,0.36099 -0.00235,0.360992 0.1775671,-0.179424 z m 9.0023945,-7.706961 c 0.07277,4.42e-4 0.13269,-0.06011 0.133174,-0.134568 4.87e-4,-0.07446 -0.05865,-0.135733 -0.131408,-0.136176 -0.07277,-4.42e-4 -0.132689,0.06011 -0.133175,0.13457 -4.85e-4,0.07446 0.05865,0.135733 0.131409,0.136174 z m 0.530933,-0.267529 c 0.07277,4.42e-4 0.13269,-0.06011 0.133176,-0.134568 4.87e-4,-0.07446 -0.05865,-0.135733 -0.131408,-0.136175 -0.07277,-4.43e-4 -0.132689,0.06011 -0.133176,0.134568 -4.85e-4,0.07446 0.05865,0.135734 0.131408,0.136175 z m 4.235105,-0.245032 c 0.07277,4.42e-4 0.132689,-0.06011 0.133174,-0.13457 4.87e-4,-0.07446 -0.05864,-0.135733 -0.131407,-0.136175 -0.07277,-4.41e-4 -0.132689,0.06011 -0.133175,0.134568 -4.86e-4,0.07446 0.05865,0.135735 0.131408,0.136177 z m 0.532702,-0.538275 c 0.07277,4.42e-4 0.132689,-0.06011 0.133173,-0.134569 4.86e-4,-0.07446 -0.05864,-0.135734 -0.131408,-0.136175 -0.07277,-4.42e-4 -0.13269,0.06011 -0.133176,0.134567 -4.84e-4,0.07446 0.05865,0.135735 0.131411,0.136177 z m -2.896286,-2.183631 c 0.07277,4.44e-4 0.13269,-0.06012 0.133176,-0.134566 4.87e-4,-0.07446 -0.05864,-0.135734 -0.131409,-0.136176 -0.07277,-4.42e-4 -0.132688,0.06011 -0.133175,0.134569 -4.85e-4,0.07446 0.05865,0.135732 0.131408,0.136173 z m 11.112508,0.06748 c 0.07277,4.43e-4 0.13269,-0.06011 0.133177,-0.134567 4.85e-4,-0.07446 -0.05865,-0.135734 -0.131409,-0.136176 -0.07277,-4.42e-4 -0.132689,0.06011 -0.133175,0.134569 -4.87e-4,0.07446 0.05865,0.135733 0.131407,0.136174 z m -12.698242,-0.34787 c 0.07277,4.42e-4 0.132688,-0.06011 0.133174,-0.134567 4.86e-4,-0.07446 -0.05865,-0.135735 -0.131408,-0.136177 -0.07277,-4.42e-4 -0.132689,0.06011 -0.133174,0.134569 -4.86e-4,0.07446 0.05865,0.135734 0.131408,0.136175 z m 10.847925,0.06588 c 0.07277,4.42e-4 0.13269,-0.06012 0.133175,-0.13457 4.87e-4,-0.07445 -0.05864,-0.135735 -0.131408,-0.136176 -0.07277,-4.42e-4 -0.132689,0.06011 -0.133175,0.13457 -4.86e-4,0.07445 0.05865,0.135734 0.131408,0.136176 z m 1.058335,0.0064 c 0.07277,4.41e-4 0.132688,-0.06012 0.133175,-0.134568 4.86e-4,-0.07446 -0.05865,-0.135734 -0.131408,-0.136177 -0.07277,-4.42e-4 -0.13269,0.06011 -0.133177,0.13457 -4.85e-4,0.07445 0.05864,0.135733 0.13141,0.136175 z m 1.852084,0.01128 c 0.07277,4.42e-4 0.132689,-0.06011 0.133176,-0.134568 4.85e-4,-0.07446 -0.05865,-0.135734 -0.131408,-0.136176 -0.07277,-4.42e-4 -0.13269,0.06011 -0.133176,0.134569 -4.87e-4,0.07445 0.05864,0.135734 0.131408,0.136175 z m -8.200324,-0.320561 c 0.07277,4.42e-4 0.132691,-0.06011 0.133177,-0.134568 4.85e-4,-0.07445 -0.05864,-0.135733 -0.131409,-0.136176 -0.07277,-4.42e-4 -0.132689,0.06012 -0.133175,0.13457 -4.87e-4,0.07446 0.05864,0.135733 0.131407,0.136174 z m 3.175004,0.01928 c 0.07277,4.41e-4 0.132689,-0.06011 0.133175,-0.134568 4.87e-4,-0.07446 -0.05864,-0.135734 -0.131409,-0.136176 -0.07277,-4.42e-4 -0.132688,0.06011 -0.133175,0.134569 -4.85e-4,0.07446 0.05864,0.135732 0.131409,0.136175 z m -2.114902,-0.283599 c 0.07277,4.42e-4 0.132689,-0.06011 0.133176,-0.134568 4.86e-4,-0.07446 -0.05864,-0.135735 -0.131408,-0.136177 -0.07277,-4.42e-4 -0.13269,0.06011 -0.133176,0.13457 -4.86e-4,0.07446 0.05864,0.135734 0.131408,0.136175 z m 4.01344,-0.06588 0.177566,-0.179426 -0.175209,-0.181568 -0.175212,-0.181566 -0.0024,0.360991 -0.0024,0.360992 0.177568,-0.179423 z m 3.924067,0.114086 c 0.07277,4.42e-4 0.13269,-0.06011 0.133175,-0.13457 4.86e-4,-0.07446 -0.05864,-0.135735 -0.131409,-0.136177 -0.07277,-4.41e-4 -0.132689,0.06012 -0.133174,0.134571 -4.86e-4,0.07445 0.05864,0.135733 0.131408,0.136176 z m 1.058335,0.0064 c 0.07277,4.42e-4 0.132689,-0.06012 0.133174,-0.134568 4.86e-4,-0.07445 -0.05865,-0.135734 -0.131408,-0.136177 -0.07277,-4.42e-4 -0.132689,0.06011 -0.133173,0.13457 -4.87e-4,0.07446 0.05864,0.135734 0.131407,0.136175 z m -14.55033,-0.35915 c 0.07277,4.43e-4 0.13269,-0.06011 0.133176,-0.134567 4.86e-4,-0.07446 -0.05864,-0.135733 -0.131408,-0.136175 -0.07277,-4.42e-4 -0.132689,0.0601 -0.133176,0.134569 -4.86e-4,0.07446 0.05864,0.135732 0.131408,0.136173 z m 2.91042,0.01767 c 0.07277,4.42e-4 0.132689,-0.06011 0.133174,-0.134569 4.87e-4,-0.07446 -0.05864,-0.135734 -0.131407,-0.136176 -0.07277,-4.41e-4 -0.132689,0.06011 -0.133175,0.13457 -4.86e-4,0.07446 0.05865,0.135733 0.131408,0.136175 z m 1.322917,0.0082 c 0.07277,4.42e-4 0.13269,-0.06011 0.133177,-0.134568 4.85e-4,-0.07446 -0.05864,-0.135733 -0.131409,-0.136175 -0.07277,-4.42e-4 -0.132689,0.06011 -0.133175,0.134569 -4.87e-4,0.07446 0.05864,0.135733 0.131407,0.136174 z m 0.529168,0.0031 c 0.07277,4.41e-4 0.132688,-0.06011 0.133174,-0.134568 4.87e-4,-0.07446 -0.05864,-0.135733 -0.131407,-0.136175 -0.07277,-4.42e-4 -0.132689,0.06012 -0.133175,0.134569 -4.86e-4,0.07446 0.05865,0.135732 0.131408,0.136174 z m 2.645835,0.01607 c 0.07277,4.42e-4 0.132689,-0.06012 0.133176,-0.134569 4.85e-4,-0.07445 -0.05864,-0.135733 -0.131408,-0.136175 -0.07277,-4.41e-4 -0.132691,0.0601 -0.133176,0.134568 -4.86e-4,0.07446 0.05864,0.135733 0.131408,0.136176 z m 7.937507,0.04821 c 0.07277,4.42e-4 0.132689,-0.06011 0.133175,-0.134568 4.86e-4,-0.07446 -0.05864,-0.135733 -0.131408,-0.136175 -0.07277,-4.43e-4 -0.132689,0.06011 -0.133176,0.134567 -4.86e-4,0.07446 0.05864,0.135734 0.131409,0.136176 z m -6.875639,-0.58327 c 0.07277,4.42e-4 0.13269,-0.06011 0.133175,-0.134568 4.87e-4,-0.07446 -0.05864,-0.135734 -0.131408,-0.136176 -0.07277,-4.42e-4 -0.132689,0.06011 -0.133175,0.134568 -4.86e-4,0.07446 0.05864,0.135735 0.131408,0.136176 z m -4.893029,-0.300472 0.352779,0.0021 -0.175212,-0.181568 -0.17521,-0.181568 -0.177567,0.179424 -0.177567,0.179426 0.352777,0.0021 z m 2.513544,0.01527 c 0.07277,4.42e-4 0.13269,-0.06011 0.133175,-0.134568 4.86e-4,-0.07445 -0.05864,-0.135734 -0.131409,-0.136176 -0.07277,-4.41e-4 -0.132689,0.06012 -0.133174,0.134569 -4.86e-4,0.07446 0.05864,0.135732 0.131408,0.136175 z m 8.995841,0.05464 c 0.07277,4.42e-4 0.132689,-0.06012 0.133176,-0.134569 4.84e-4,-0.07446 -0.05865,-0.135732 -0.131408,-0.136175 -0.07277,-4.41e-4 -0.13269,0.06011 -0.133176,0.134568 -4.87e-4,0.07446 0.05865,0.135734 0.131408,0.136176 z m -4.496153,-0.298024 c 0.07277,4.44e-4 0.132689,-0.0601 0.133174,-0.134566 4.85e-4,-0.07446 -0.05865,-0.135735 -0.131409,-0.136177 -0.07277,-4.42e-4 -0.132689,0.06012 -0.133173,0.13457 -4.86e-4,0.07446 0.05864,0.135732 0.131408,0.136173 z m 3.704169,0.02249 c 0.07277,4.45e-4 0.13269,-0.0601 0.133176,-0.134568 4.86e-4,-0.07445 -0.05864,-0.135734 -0.131409,-0.136175 -0.07277,-4.42e-4 -0.132689,0.06012 -0.133175,0.13457 -4.85e-4,0.07446 0.05864,0.135731 0.131408,0.136173 z m -13.447309,-0.442678 0.177567,-0.179425 -0.175211,-0.181568 -0.17521,-0.181568 -0.0024,0.360992 -0.0024,0.360993 0.177567,-0.179424 z m 2.645836,0.01607 0.177567,-0.179425 -0.175211,-0.181568 -0.175211,-0.181567 -0.0024,0.360991 -0.0024,0.360993 0.177568,-0.179424 z m 1.404628,3.2e-4 0.795233,0.0048 -0.454019,-0.562727 c -0.249712,-0.309501 -0.502236,-0.62394 -0.561168,-0.698756 -0.05893,-0.07482 -0.04124,0.145475 0.03932,0.489534 l 0.146465,0.625562 -0.350551,-0.301506 -0.350551,-0.301506 -0.15026,0.245225 c -0.08265,0.134876 -0.09613,0.301316 -0.02996,0.36987 0.06614,0.06855 0.478135,0.126818 0.915511,0.129475 z m -0.653797,-0.176271 c -0.07277,-4.42e-4 -0.131893,-0.06172 -0.131408,-0.136175 4.86e-4,-0.07445 0.06042,-0.135011 0.133175,-0.13457 0.07277,4.42e-4 0.131895,0.06172 0.131408,0.136177 -4.84e-4,0.07446 -0.06041,0.135011 -0.133175,0.134568 z m 2.685526,-0.01721 0.385114,-0.322929 0.781133,-0.01893 0.78113,-0.01893 -0.0011,0.17409 c -6.37e-4,0.09575 0.183147,0.247771 0.408409,0.337823 l 0.409566,0.16373 -0.159903,-0.268624 -0.1599,-0.268623 0.346396,-0.0061 0.346398,-0.0061 -0.477232,-0.288076 -0.47723,-0.288078 -0.38178,0.147216 -0.38178,0.14722 0.0015,-0.224702 0.0015,-0.224701 -0.666219,0.126113 c -0.36642,0.06937 -0.731715,0.233007 -0.81177,0.363655 -0.08005,0.130649 -0.313384,0.236523 -0.518509,0.235276 l -0.372956,-0.0023 0.132772,-0.347206 0.13277,-0.347205 -0.60155,-0.04576 -0.601551,-0.04576 0.7499,0.675918 0.749902,0.675917 0.385114,-0.322929 z m 7.89605,0.352234 c 0.07277,4.42e-4 0.132689,-0.06012 0.133175,-0.13457 4.86e-4,-0.07446 -0.05865,-0.135733 -0.131408,-0.136176 -0.07277,-4.41e-4 -0.132689,0.06012 -0.133176,0.13457 -4.86e-4,0.07445 0.05865,0.135733 0.131409,0.136176 z m -11.85743,-0.505256 c 0.121297,-0.163078 0.399622,-0.37246 0.618517,-0.46529 l 0.397992,-0.168784 -0.507652,0.05983 -0.507652,0.05982 -0.110871,0.405457 -0.110872,0.405461 0.220523,-0.296506 z m 7.71014,0.209296 0.54595,0.0032 0.147968,-0.241486 0.147966,-0.241485 -0.375044,-0.149931 -0.375047,-0.149932 -0.318871,0.388102 -0.318872,0.388101 0.54595,0.0032 z m -8.946063,-0.32509 0.352779,0.0021 -0.175212,-0.181567 -0.17521,-0.181567 -0.177567,0.179424 -0.177567,0.179424 0.352777,0.0021 z m 11.775736,-0.199233 c 0.07277,4.42e-4 0.132689,-0.06012 0.133176,-0.134568 4.86e-4,-0.07446 -0.05865,-0.135734 -0.131409,-0.136175 -0.07277,-4.42e-4 -0.13269,0.06011 -0.133176,0.134567 -4.85e-4,0.07446 0.05865,0.135734 0.131409,0.136176 z m 1.322918,0.0082 c 0.07277,4.41e-4 0.132689,-0.06011 0.133176,-0.134569 4.84e-4,-0.07445 -0.05865,-0.135733 -0.13141,-0.136175 -0.07277,-4.42e-4 -0.132689,0.06012 -0.133174,0.134568 -4.87e-4,0.07446 0.05865,0.135734 0.131408,0.136176 z m -8.200324,-0.320636 c 0.07277,4.41e-4 0.132689,-0.06012 0.133176,-0.13457 4.84e-4,-0.07446 -0.05864,-0.135733 -0.131409,-0.136175 -0.07277,-4.42e-4 -0.132688,0.06011 -0.133174,0.134569 -4.87e-4,0.07446 0.05864,0.135734 0.131407,0.136176 z m 3.439587,0.02089 c 0.07277,4.42e-4 0.13269,-0.06011 0.133175,-0.13457 4.85e-4,-0.07446 -0.05865,-0.135734 -0.13141,-0.136175 -0.07277,-4.42e-4 -0.132689,0.06012 -0.133173,0.134568 -4.86e-4,0.07446 0.05864,0.135735 0.131408,0.136177 z m 36.392383,18.632357 c -0.07277,-4.42e-4 -0.131894,-0.06172 -0.131407,-0.136176 4.86e-4,-0.07445 0.06042,-0.13501 0.133174,-0.134569 0.07277,4.42e-4 0.131895,0.06172 0.13141,0.136177 -4.87e-4,0.07446 -0.06042,0.13501 -0.133177,0.134568 z"
       clip-path="url(#clipPath4058)"
       id="path3066"
       style="fill:#000000" />
  </g>
</svg>
