<?xml version="1.0" encoding="UTF-8" standalone="no"?>
<!-- Created with Inkscape (http://www.inkscape.org/) -->

<svg
   xmlns:dc="http://purl.org/dc/elements/1.1/"
   xmlns:cc="http://creativecommons.org/ns#"
   xmlns:rdf="http://www.w3.org/1999/02/22-rdf-syntax-ns#"
   xmlns:svg="http://www.w3.org/2000/svg"
   xmlns="http://www.w3.org/2000/svg"
   xmlns:sodipodi="http://sodipodi.sourceforge.net/DTD/sodipodi-0.dtd"
   xmlns:inkscape="http://www.inkscape.org/namespaces/inkscape"
   version="1.1"
   width="64"
   height="64"
   id="svg3087"
   inkscape:version="0.48.5 r10040"
   sodipodi:docname="gorilla2.svg">
  <sodipodi:namedview
     pagecolor="#ffffff"
     bordercolor="#666666"
     borderopacity="1"
     objecttolerance="10"
     gridtolerance="10"
     guidetolerance="10"
     inkscape:pageopacity="0"
     inkscape:pageshadow="2"
     inkscape:window-width="640"
     inkscape:window-height="480"
     id="namedview7"
     showgrid="false"
     inkscape:zoom="3.6875"
     inkscape:cx="32"
     inkscape:cy="32"
     inkscape:window-x="0"
     inkscape:window-y="0"
     inkscape:window-maximized="0"
     inkscape:current-layer="svg3087" />
  <defs
     id="defs3089" />
  <metadata
     id="metadata3092">
    <rdf:RDF>
      <cc:Work
         rdf:about="">
        <dc:format>image/svg+xml</dc:format>
        <dc:type
           rdf:resource="http://purl.org/dc/dcmitype/StillImage" />
        <dc:title></dc:title>
      </cc:Work>
    </rdf:RDF>
  </metadata>
  <g
     id="layer1"
     transform="matrix(0.65447682,0,0,0.69087209,0.12872767,0.29494997)">
    <path
       d="M 4.6499244,62.71452 C 4.3560481,62.45025 4.0390125,62.23403 3.9454015,62.23403 c -0.093611,0 -0.3603707,-0.38119 -0.5928017,-0.84708 C 3.1201707,60.92106 2.4449196,60.12103 1.8520425,59.60911 0.6206437,58.54585 0.3725587,58.01544 0.3725587,56.44598 c 0,-0.92098 0.1276208,-1.34759 0.7245069,-2.42186 0.3984766,-0.71718 0.9259052,-1.52019 1.172059,-1.78446 0.2461557,-0.26428 0.7372907,-0.99944 1.0914141,-1.6337 0.6950291,-1.24485 1.038797,-1.67027 2.2610506,-2.79814 C 6.0573579,47.4057 6.5657057,46.82642 6.751254,46.52052 7.0859322,45.96876 7.0827868,45.957295 6.3551008,45.076513 5.9516682,44.588207 5.3541859,43.780036 5.0273595,43.28058 4.700533,42.781123 4.2696114,42.128754 4.069758,41.830869 3.5543408,41.062636 3.3234251,39.51904 3.2105551,36.087397 3.120967,33.363638 3.155567,32.932306 3.6036936,31.186313 4.3953128,28.10199 4.7819782,27.304935 6.2307978,25.770905 6.9511351,25.008204 8.022375,24.073815 8.611332,23.694489 9.200287,23.315162 9.68216,22.922937 9.68216,22.822878 c 0,-0.100059 0.111418,-0.182174 0.247596,-0.18248 0.136178,-3.84e-4 0.425865,-0.260275 0.643749,-0.577715 0.217884,-0.31744 0.532527,-0.619695 0.699207,-0.671675 0.166679,-0.05198 0.779746,-0.570417 1.362373,-1.15208 l 1.059319,-1.057565 2.759408,0 c 1.517673,0 2.718027,0.06487 2.667452,0.144149 -0.05057,0.07928 0.991495,0.122919 2.31571,0.09697 2.540141,-0.04977 3.388963,0.03876 3.201,0.333866 -0.0687,0.107857 -0.310876,0.09237 -0.607705,-0.03886 -0.363592,-0.160748 -0.551757,-0.161641 -0.714845,-0.0034 -0.236418,0.229404 -0.0039,0.307666 1.498355,0.504284 0.949373,0.124255 1.704895,-0.333188 1.704895,-1.032259 0,-0.114366 0.173749,-0.124134 0.445672,-0.02505 0.561375,0.204546 2.640857,0.07577 3.385597,-0.209665 0.448671,-0.171959 0.597839,-0.161088 0.73454,0.05353 0.136611,0.214485 0.221604,0.22073 0.417474,0.03067 0.195868,-0.190047 0.189482,-0.238633 -0.03137,-0.238633 -0.413502,0 -0.01741,-0.30228 0.849165,-0.648037 0.453223,-0.180833 0.695116,-0.21293 0.611143,-0.08109 -0.07644,0.120011 0.09573,0.05207 0.382591,-0.150982 0.286865,-0.203053 0.524373,-0.434054 0.527797,-0.513336 0.0034,-0.07928 0.169211,-0.144149 0.368419,-0.144149 0.199206,0 0.756296,-0.250146 1.237979,-0.555877 0.481681,-0.305734 1.164385,-0.615088 1.517118,-0.687455 0.352735,-0.07237 0.820691,-0.352825 1.039903,-0.62324 0.425444,-0.524813 0.544288,-1.126494 0.179271,-0.907594 -0.724051,0.434211 0.689277,-1.836131 1.952467,-3.136406 0.354062,-0.364456 0.643749,-0.721841 0.643749,-0.794187 0,-0.07235 0.24512,-0.273361 0.544711,-0.446696 0.299591,-0.173335 1.719556,-1.446085 3.155477,-2.828331 1.435923,-1.382246 2.670978,-2.513174 2.74457,-2.513174 0.07359,0 0.471426,-0.25947 0.884077,-0.576599 0.412651,-0.317129 0.83333,-0.576598 0.934841,-0.576598 0.10151,0 0.400653,-0.223776 0.664765,-0.497281 0.514779,-0.533092 1.581596,-1.040314 2.188039,-1.040314 0.204582,0 0.371964,-0.07047 0.371964,-0.156602 0,-0.267299 1.318123,-0.782349 2.338251,-0.913658 0.788219,-0.101458 1.025045,-0.06208 1.248489,0.207617 0.151666,0.183055 0.506153,0.560148 0.787753,0.837984 1.655614,1.633491 2.523781,2.778992 2.751453,3.630397 0.613065,2.292619 0.815038,2.704785 1.651226,3.369645 0.861962,0.685358 1.72089,2.08278 1.72089,2.799788 0,0.226268 0.08913,0.411397 0.198076,0.411397 0.227382,0 0.274661,2.049131 0.04952,2.146227 -0.08171,0.03524 -0.34911,0.462743 -0.594229,0.950014 -0.341494,0.678856 -0.445673,1.223157 -0.445673,2.328523 0,1.151547 -0.07992,1.541162 -0.396153,1.931258 -0.310493,0.383017 -0.396153,0.77971 -0.396153,1.834606 0,1.233109 -0.07041,1.46416 -0.840047,2.756576 -0.825544,1.386296 -0.84124,1.446456 -0.909075,3.484277 -0.05507,1.654269 -0.0053,2.167915 0.245817,2.53988 0.173165,0.25644 0.314845,0.804668 0.314845,1.218281 0,0.461897 0.125067,0.852742 0.324178,1.013087 0.178297,0.143584 0.491054,0.638819 0.695015,1.10052 0.203962,0.461703 0.536877,1.044283 0.739815,1.29462 0.321125,0.396131 0.387742,0.978072 0.513676,4.487206 l 0.144697,4.032046 -0.628474,1.114735 c -0.345661,0.613106 -0.751285,1.726137 -0.901385,2.473407 -0.150101,0.74727 -0.535683,1.91488 -0.856846,2.5947 -0.321163,0.67981 -0.749138,1.71171 -0.951053,2.29311 -0.201917,0.5814 -0.433972,1.08593 -0.515679,1.12116 -0.08171,0.0352 -0.148557,0.1905 -0.148557,0.34503 0,0.15453 -0.430999,0.90411 -0.957774,1.66573 -1.103091,1.59487 -1.348894,2.20026 -1.53241,3.77419 l -0.132485,1.13627 0.568547,0.0823 c 0.312701,0.0453 -0.335692,0.0953 -1.440873,0.1111 -1.506761,0.0216 -2.325933,-0.0661 -3.27469,-0.35041 -2.227031,-0.66745 -2.67364,-1.57091 -1.54476,-3.12495 0.952473,-1.31119 0.970962,-2.00272 0.09421,-3.52397 -0.716871,-1.24385 -0.738204,-1.33558 -0.650909,-2.79882 0.04964,-0.83205 0.07251,-1.51282 0.05081,-1.51282 -0.02169,0 -0.320145,0.23785 -0.663228,0.52855 -0.521098,0.44154 -0.676304,0.78167 -0.942805,2.06614 -0.408022,1.96656 -0.579616,2.27168 -1.766744,3.14149 l -0.978994,0.7173 -0.04709,1.81849 c -0.03977,1.53569 -0.132182,1.9891 -0.59423,2.9155 -0.300925,0.60334 -0.646534,1.10066 -0.76802,1.10514 -0.121486,0.004 -0.447516,0.18113 -0.724511,0.39255 -0.347385,0.26514 -0.803553,0.3844 -1.470406,0.3844 -0.575715,0 -1.281086,-0.15549 -1.743809,-0.3844 -0.427368,-0.21142 -0.94088,-0.3844 -1.141139,-0.3844 -0.20026,0 -0.638605,-0.13774 -0.974101,-0.30608 l -0.609993,-0.30608 0.102754,-1.85616 c 0.07515,-1.35744 0.241218,-2.20472 0.618086,-3.15341 0.719791,-1.81192 0.829767,-3.05137 0.39651,-4.46874 -0.445114,-1.45615 -0.598873,-5.408334 -0.256567,-6.594656 0.154678,-0.536063 0.559541,-1.142174 1.137608,-1.703088 0.727957,-0.706358 0.857495,-0.930672 0.685842,-1.187629 -0.300902,-0.450439 -1.209234,-0.35662 -2.996099,0.309454 -0.835265,0.311356 -2.008903,0.673947 -2.608085,0.80576 -0.599182,0.131812 -1.586407,0.410188 -2.193835,0.618609 -1.000261,0.343214 -1.523295,0.372571 -5.546146,0.311299 -2.442952,-0.03721 -4.597717,-0.139042 -4.788366,-0.226299 -0.261815,-0.119829 -0.346634,-0.0746 -0.346634,0.184857 0,0.624076 -0.837258,2.1546 -1.314117,2.402237 -0.459096,0.238406 -0.468572,0.298786 -0.468572,2.985236 0,1.56267 0.09488,2.97459 0.220613,3.28296 0.500867,1.22839 0.967846,3.88154 0.967846,5.49885 0,2.11777 0.277555,2.653 1.718864,3.31462 0.566323,0.25996 1.124332,0.47266 1.240019,0.47266 0.423296,0 0.195607,0.59155 -0.297743,0.77355 -0.279446,0.1031 -1.861583,0.18779 -3.51586,0.18822 -1.654275,3.8e-4 -3.809984,0.12397 -4.790463,0.27455 -0.98048,0.15058 -2.384348,0.33328 -3.119707,0.40602 l -1.337018,0.13223 -0.003,-2.28073 c -0.004,-2.98926 -0.120064,-3.14435 -1.381341,-1.84536 -0.540424,0.55658 -1.198896,1.09176 -1.4632694,1.1893 -0.3703656,0.13663 -0.5106534,0.36753 -0.6112882,1.00612 -0.247267,1.56903 -0.4640084,1.88589 -1.2900176,1.88589 -0.5141059,0 -0.9021341,-0.14638 -1.2736724,-0.48049 z"
       id="path3157"
       style="fill:#000000"
       inkscape:connector-curvature="0" />
  </g>
</svg>
