<?xml version="1.0" encoding="UTF-8" standalone="no"?>
<!-- Created with Inkscape (http://www.inkscape.org/) -->

<svg
   xmlns:dc="http://purl.org/dc/elements/1.1/"
   xmlns:cc="http://creativecommons.org/ns#"
   xmlns:rdf="http://www.w3.org/1999/02/22-rdf-syntax-ns#"
   xmlns:svg="http://www.w3.org/2000/svg"
   xmlns="http://www.w3.org/2000/svg"
   version="1.1"
   width="64"
   height="64"
   id="svg2995">
  <defs
     id="defs2997" />
  <metadata
     id="metadata3000">
    <rdf:RDF>
      <cc:Work
         rdf:about="">
        <dc:format>image/svg+xml</dc:format>
        <dc:type
           rdf:resource="http://purl.org/dc/dcmitype/StillImage" />
        <dc:title></dc:title>
      </cc:Work>
    </rdf:RDF>
  </metadata>
  <g
     transform="translate(-12,0)"
     id="layer1">
    <path
       d="m 37.399258,64.062277 c -0.110229,-0.0772 -0.200416,-0.19163 -0.200416,-0.25426 0,-0.0626 -0.202563,-0.37482 -0.45014,-0.69375 -0.259407,-0.33416 -0.472775,-0.71359 -0.503558,-0.89547 -0.09998,-0.59072 -0.231996,-0.90075 -0.5411,-1.27072 -0.16979,-0.20323 -0.315511,-0.45696 -0.323826,-0.56386 -0.0083,-0.1069 -0.02117,-1.22913 -0.02858,-2.49384 -0.01659,-2.83385 -0.227332,-4.49767 -0.96515,-7.61981 -0.256094,-1.08369 -0.281635,-1.34287 -0.337961,-3.42945 -0.03351,-1.24144 -0.08575,-2.29733 -0.116092,-2.34642 -0.09124,-0.14762 -0.413835,-2.42064 -0.568857,-4.00815 -0.07991,-0.81835 -0.223236,-1.89455 -0.318497,-2.39157 -0.198567,-1.03599 -0.671957,-2.49868 -0.743587,-2.29755 -0.169852,0.47692 -0.253217,2.36963 -0.195757,4.44439 0.05192,1.8746 0.03844,2.40103 -0.07677,2.9993 -0.14919,0.77469 -0.13144,0.94533 0.198577,1.90915 0.239735,0.70015 0.248559,1.59243 0.04746,4.79921 -0.171919,2.7415 -0.129442,6.1813 0.102877,8.33099 0.08753,0.80996 0.120141,1.45829 0.0754,1.49922 -0.04335,0.0397 -0.47175,0.20134 -0.951991,0.35928 -1.086308,0.35727 -1.491482,0.64637 -1.924993,1.37353 -0.504995,0.84708 -0.712318,1.03897 -1.200346,1.111 -0.231048,0.0341 -0.546613,0.1396 -0.701256,0.23444 -0.339776,0.20838 -1.075527,0.22967 -1.51992,0.044 -0.641986,-0.26823 -0.888343,-1.41145 -0.487793,-2.26358 0.207633,-0.44172 0.442191,-0.64165 1.080756,-0.92121 0.632231,-0.27678 1.64831,-1.28553 1.986191,-1.97186 0.273289,-0.55513 0.281485,-0.60566 0.236015,-1.45491 -0.03138,-0.58618 -0.202695,-1.57201 -0.513295,-2.95384 -0.663713,-2.9528 -0.813096,-3.92021 -0.9083,-5.88219 -0.09426,-1.9426 -0.234517,-2.96597 -0.676876,-4.93885 -0.521106,-2.32408 -0.694975,-3.56521 -1.032904,-7.37321 -0.232898,-2.62444 -0.234292,-3.84491 -0.0056,-4.9439 0.09709,-0.46667 0.219071,-1.45152 0.27107,-2.18857 0.052,-0.73704 0.177989,-1.73122 0.27998,-2.20929 0.312424,-1.46444 0.378461,-2.01401 0.326579,-2.71781 -0.05342,-0.72469 -0.611355,-3.66462 -0.775798,-4.08793 l -0.09925,-0.25548 -0.284402,0.23931 c -0.424144,0.35689 -1.725339,0.98328 -2.930263,1.41061 -0.959704,0.34037 -1.15547,0.37935 -1.939851,0.38629 -1.020971,0.009 -1.255454,-0.10436 -1.578639,-0.76345 -0.509878,-1.03983 -0.689536,-4.34717 -0.359779,-6.6232 0.08623,-0.59516 0.180509,-1.54876 0.209512,-2.11912 0.04629,-0.9103 0.02913,-1.10631 -0.14044,-1.6040697 C 18.573732,8.9671669 18.29516,7.3636369 18.21308,6.2199269 c -0.07976,-1.11143 0.02642,-1.51871 0.492113,-1.88755 0.19212,-0.15216 0.39108,-0.27666 0.442133,-0.27666 0.05105,0 0.213976,-0.10194 0.36205,-0.22653 0.562026,-0.47292 1.75346,-0.67649 2.209687,-0.37756 0.27144,0.17785 0.330981,0.51145 0.40848,2.28864 0.03283,0.75292 0.08763,1.39687 0.121764,1.43101 0.03414,0.0341 0.276243,-0.12529 0.538012,-0.35428 0.66829,-0.5846 1.358067,-0.67493 1.478857,-0.19367 0.06451,0.25703 -0.03436,0.44956 -0.653368,1.27238 -1.421121,1.8890304 -1.679465,2.6465601 -1.688836,4.9521101 -0.0053,1.29849 0.126928,2.47982 0.277524,2.47982 0.02701,0 0.328805,-0.18594 0.670655,-0.4132 0.424854,-0.28244 0.750105,-0.59337 1.027803,-0.98252 0.730734,-1.02404 1.386434,-1.49563 2.694069,-1.93764 1.430138,-0.48342 3.127634,-1.49185 3.312552,-1.96789 0.05224,-0.1344897 0.07839,-0.5691597 0.0581,-0.9659401 -0.0329,-0.6434 -0.08624,-0.82376 -0.493365,-1.66824 -1.05335,-2.18491 -1.243384,-3.10587 -0.85292,-4.13349 0.372948,-0.98152 1.384393,-2.17878 1.840633,-2.17878 0.116255,0 0.455026,-0.15833003 0.752827,-0.35183003 0.687017,-0.44642 1.162617,-0.59069 1.687653,-0.51196 0.929439,0.13938 2.311263,1.40899003 2.961304,2.72083003 0.606282,1.22353 0.57078,1.64992 -0.29715,3.56899 -0.93115,2.05885 -0.987967,2.43834 -0.461355,3.0814104 0.786733,0.9607097 2.259299,1.9316397 3.438117,2.2669097 0.861297,0.24496 1.188087,0.41506 1.492551,0.77689 0.760055,0.90328 1.04916,2.1842 1.493926,6.61909 0.229809,2.29149 0.367164,3.32265 0.771096,5.78879 0.06745,0.41181 -0.09511,1.60593 -0.50093,3.67962 -0.397097,2.02912 -0.628759,3.38138 -0.897433,5.2385 -0.252042,1.74216 -0.582108,2.65382 -1.214591,3.35476 -0.350703,0.38866 -0.453082,0.70915 -0.639645,2.00234 -0.07513,0.52076 -0.227132,1.23089 -0.337785,1.57806 -0.178829,0.56108 -0.200811,0.81663 -0.197797,2.29948 0.0031,1.5179 0.02746,1.77388 0.270526,2.84052 0.259451,1.13856 0.266996,1.23842 0.262295,3.47175 -0.0053,2.51289 -0.121835,3.67884 -0.550217,5.50444 -0.185916,0.79231 -0.242433,1.26459 -0.242348,2.0252 1.32e-4,1.18424 0.153878,1.67155 1.251325,3.96617 l 0.689314,1.44126 -0.256003,0.47871 c -0.474604,0.88749 -0.680063,1.07141 -1.321706,1.18315 -0.763715,0.13299 -0.975842,0.12587 -1.213703,-0.0407 z m 1.468747,-33.51851 c 0.07158,-0.66945 -0.09065,-4.19308 -0.275114,-5.97541 -0.126651,-1.22375 -0.271519,-1.95913 -0.496963,-2.52267 l -0.108223,-0.27052 -0.08466,0.27052 c -0.15349,0.49047 -0.0811,2.39246 0.202484,5.32035 0.268631,2.77346 0.452838,3.89456 0.622665,3.7896 0.04381,-0.0271 0.106724,-0.30242 0.139811,-0.61187 z"
       id="path2220"
       style="fill:#000000" />
  </g>
</svg>
