<?xml version="1.0" encoding="UTF-8" standalone="no"?>
<!-- Created with Inkscape (http://www.inkscape.org/) -->

<svg
   xmlns:dc="http://purl.org/dc/elements/1.1/"
   xmlns:cc="http://creativecommons.org/ns#"
   xmlns:rdf="http://www.w3.org/1999/02/22-rdf-syntax-ns#"
   xmlns:svg="http://www.w3.org/2000/svg"
   xmlns="http://www.w3.org/2000/svg"
   version="1.1"
   width="64"
   height="64"
   id="svg2986">
  <defs
     id="defs2988" />
  <metadata
     id="metadata2991">
    <rdf:RDF>
      <cc:Work
         rdf:about="">
        <dc:format>image/svg+xml</dc:format>
        <dc:type
           rdf:resource="http://purl.org/dc/dcmitype/StillImage" />
        <dc:title></dc:title>
      </cc:Work>
    </rdf:RDF>
  </metadata>
  <g
     transform="matrix(0.58721518,0,0,0.65445074,0.14795766,1.2792431)"
     id="layer1">
    <path
       d="m 32.554872,59.082828 c -1.107708,-0.221032 -1.490521,-0.432634 -2.27517,-1.257615 -0.413122,-0.434357 -0.517111,-0.601464 -0.41733,-0.670636 0.09502,-0.06587 0.08111,-0.07647 -0.04881,-0.03719 -0.13331,0.04031 -0.293519,-0.0963 -0.601539,-0.512919 -0.23091,-0.312323 -0.472227,-0.569049 -0.536259,-0.570504 -0.06403,-0.0014 -0.142961,-0.07626 -0.175398,-0.166247 -0.04891,-0.135673 -0.167832,-0.154459 -0.696613,-0.110046 -1.079926,0.0907 -4.678016,0.168642 -7.619953,0.165053 -1.731066,-0.0021 -2.88614,0.03782 -3.021809,0.104464 -0.127203,0.06249 -0.577868,0.08557 -1.071008,0.05485 -0.682034,-0.04248 -0.914429,-0.100021 -1.168281,-0.289256 -0.174289,-0.129923 -0.4267,-0.23835 -0.560913,-0.24095 -0.134214,-0.0026 -0.300184,-0.06333 -0.368823,-0.134969 -0.170672,-0.178116 -5.8186886,-0.297452 -6.0346961,-0.127505 -0.381381,0.300056 -1.6492201,0.491254 -3.5973716,0.542506 -0.84181,0.02214 -1.2449813,-0.0051 -1.3439687,-0.09084 -0.077774,-0.06736 -0.1881324,-0.09473 -0.2452405,-0.06082 -0.057108,0.03391 -0.1916334,-0.02992 -0.298945,-0.141855 -0.1073117,-0.11193 -0.2164042,-0.18295 -0.242428,-0.157823 -0.1566208,0.151223 -1.51449366,-0.652452 -1.80808699,-1.070141 -0.0400792,-0.05702 -0.068494,-0.367797 -0.0631442,-0.690617 0.008047,-0.485597 0.0466634,-0.60845 0.22364304,-0.711494 0.11765388,-0.0685 0.38113451,-0.396874 0.58551265,-0.729714 0.2043781,-0.332841 0.6475429,-0.905634 0.984811,-1.272875 0.3372679,-0.367239 0.6140283,-0.710029 0.615023,-0.761753 9.947e-4,-0.05172 0.168905,-0.249392 0.3731339,-0.439261 L 3.5125379,49.359463 3.4703311,48.438298 C 3.4471172,47.931657 3.3999527,46.895353 3.365521,46.135399 3.3047226,44.793495 3.2396875,44.368501 2.9966875,43.725127 2.8306876,43.28562 2.6973657,42.498394 2.6569386,41.719006 c -0.028751,-0.554279 0.020876,-0.828695 0.2856518,-1.579511 0.4243723,-1.203383 0.9159015,-2.131087 1.3996198,-2.64162 0.428171,-0.451906 0.7131346,-0.936142 1.0444187,-1.774775 0.1167772,-0.295616 0.4013735,-0.780035 0.6324359,-1.076486 0.2310626,-0.296451 0.421262,-0.598711 0.4226654,-0.67169 0.00424,-0.220551 0.6103489,-1.255631 0.9780361,-1.670242 0.1897048,-0.213913 0.5321252,-0.698209 0.7609349,-1.076212 0.2288107,-0.378003 0.6268092,-0.91829 0.8844423,-1.200638 0.257633,-0.282349 0.762679,-0.963169 1.1223255,-1.512935 0.359646,-0.549766 0.839488,-1.194547 1.066316,-1.432844 0.226828,-0.238299 0.466856,-0.588667 0.533393,-0.778597 0.06654,-0.189929 0.249516,-0.471003 0.406618,-0.624606 0.917083,-0.896662 1.975187,-1.775122 2.385321,-1.980343 0.606602,-0.303527 0.832855,-0.490356 1.26662,-1.045916 0.452234,-0.579212 1.099092,-1.182725 1.346519,-1.25629 0.105801,-0.03146 0.308479,-0.29341 0.450396,-0.582118 0.366179,-0.744931 1.082557,-1.419282 1.670158,-1.572174 0.373419,-0.09716 0.66887,-0.30709 1.386254,-0.984972 0.501431,-0.473818 1.02287,-0.958797 1.158754,-1.07773 0.135883,-0.118933 0.458353,-0.473354 0.716599,-0.7876 0.676013,-0.822606 1.097105,-1.228231 1.354518,-1.304766 0.12392,-0.03684 0.54654,-0.306274 0.939155,-0.598732 0.392615,-0.292459 0.79333,-0.557394 0.890478,-0.588745 0.09715,-0.03135 0.340069,-0.258532 0.539825,-0.504848 0.199755,-0.246316 0.596103,-0.588441 0.880773,-0.760276 0.652274,-0.393734 1.125544,-0.696555 1.659453,-1.061796 0.230825,-0.157903 0.901776,-0.472587 1.491003,-0.699295 0.589228,-0.226709 1.381382,-0.563434 1.760343,-0.748279 0.378961,-0.184844 0.840367,-0.333267 1.025346,-0.329829 0.206522,0.0038 0.574969,-0.1327 0.954651,-0.35377 1.200163,-0.698794 1.485294,-0.825843 1.838078,-0.819011 0.196002,0.0038 0.385583,-0.03855 0.421289,-0.0941 0.03571,-0.05555 0.174105,-0.09889 0.307553,-0.0963 0.133448,0.0026 0.271847,-0.04075 0.307553,-0.0963 0.03879,-0.06035 -0.09122,-0.105752 -0.322992,-0.112803 l -0.387914,-0.0118 0.360285,-0.188971 c 0.198157,-0.103943 0.429513,-0.189568 0.514124,-0.190287 0.08461,-7.23e-4 0.212862,-0.0922 0.284999,-0.203289 0.07214,-0.11109 0.211,-0.201089 0.308583,-0.199997 0.09758,0.0011 0.365148,-0.221743 0.594587,-0.495188 0.229439,-0.273446 0.488406,-0.52096 0.57548,-0.550033 0.08708,-0.02907 0.33141,-0.21048 0.542966,-0.403127 0.211556,-0.192649 0.423376,-0.349519 0.470712,-0.348603 0.04734,9.17e-4 0.380406,-0.268737 0.740157,-0.59923 0.359751,-0.330493 0.715846,-0.599701 0.791324,-0.598239 0.07548,0.0015 0.13802,-0.03831 0.138983,-0.08838 0.0018,-0.09585 0.428795,-0.181641 1.278695,-0.256951 0.280704,-0.02487 0.55472,-0.08614 0.608925,-0.13615 0.05421,-0.05001 0.341496,-0.08622 0.638425,-0.08047 0.296928,0.0057 0.540755,-0.03555 0.541836,-0.09177 0.0012,-0.06359 0.577588,-0.09108 1.525109,-0.07272 1.487624,0.02881 2.040217,0.134364 2.035324,0.388779 -0.0012,0.06158 0.219357,0.219186 0.490091,0.350231 0.328992,0.159243 0.529824,0.334523 0.605557,0.528511 0.06232,0.159636 0.24569,0.372219 0.407485,0.472407 0.161794,0.100188 0.352025,0.241075 0.422736,0.313081 0.07071,0.07201 0.355417,0.242481 0.632679,0.378831 0.277263,0.13635 0.68535,0.376012 0.906861,0.532582 0.630769,0.445842 1.474709,0.852061 1.782589,0.858024 0.367009,0.0071 0.795819,0.216893 0.792534,0.387728 -0.0014,0.07424 0.122877,0.167639 0.276234,0.207558 0.457929,0.119198 0.530362,0.239937 0.51836,0.864058 -0.0112,0.582167 -0.01454,0.58829 -0.633679,1.158447 -0.520177,0.479028 -0.623513,0.629781 -0.62905,0.917696 -0.0036,0.18948 -0.05301,0.37205 -0.109703,0.405713 -0.05669,0.03366 -0.106953,0.262776 -0.111691,0.509141 -0.0047,0.246365 0.03668,0.477254 0.09203,0.513086 0.05536,0.03583 0.09934,0.133359 0.09773,0.216726 -0.0016,0.08337 0.08686,0.252101 0.196589,0.374967 0.109728,0.122866 0.198345,0.283719 0.196927,0.357451 -0.0014,0.07373 0.04366,0.134955 0.100167,0.136049 0.148721,0.0029 0.702081,0.5376 0.699422,0.675862 -0.0012,0.06444 0.08049,0.20981 0.181617,0.323048 0.172375,0.193014 0.245531,0.410149 0.369285,1.096087 0.028,0.155212 0.09155,0.28299 0.141214,0.283952 0.04966,9.62e-4 0.08505,0.275035 0.07862,0.609052 -0.0064,0.334017 0.03361,0.636621 0.08897,0.672454 0.05536,0.03583 0.09589,0.312304 0.09009,0.614381 -0.0097,0.50358 -0.03845,0.568115 -0.346108,0.776418 -0.184549,0.124952 -0.400353,0.288022 -0.479563,0.362377 -0.150194,0.140988 -0.432199,1.192938 -0.447559,1.669511 -0.0049,0.151439 -0.114219,0.388203 -0.242974,0.526146 -0.231146,0.247639 -0.992076,0.713266 -1.340478,0.820264 -0.09866,0.0303 -0.180167,0.09573 -0.181122,0.145392 -9.55e-4,0.04966 -0.243033,0.08563 -0.537952,0.07991 -0.294918,-0.0057 -0.7888,0.07676 -1.097514,0.183266 -0.332517,0.11472 -0.814996,0.188738 -1.183727,0.181597 -0.596473,-0.01155 -1.269058,0.191644 -1.272767,0.384518 -0.0014,0.07367 -0.808661,0.703316 -1.674106,1.3058 -0.207398,0.144381 -0.23276,0.265002 -0.295162,1.40382 -0.06058,1.105451 -0.04755,1.269758 0.115609,1.45785 0.177445,0.204568 0.246692,0.591051 0.385527,2.151687 0.04158,0.467378 0.139891,0.799908 0.321346,1.086906 0.143792,0.227429 0.398384,0.699331 0.56576,1.048671 l 0.30432,0.635164 -0.03936,2.046669 c -0.03303,1.717425 -0.06907,2.112009 -0.224059,2.452837 -0.101585,0.223392 -0.219725,0.405489 -0.262533,0.40466 -0.04281,-8.29e-4 -0.0792,0.06942 -0.08086,0.156101 -0.0017,0.08668 -0.09057,0.248325 -0.197556,0.359203 -0.367857,0.381223 -0.499384,2.358479 -0.188549,2.834473 0.193441,0.296223 0.336187,0.769146 0.501556,1.661673 0.128629,0.694233 0.259591,1.28581 0.376756,1.701861 0.04891,0.173671 0.08389,0.577502 0.07774,0.897403 -0.01192,0.620025 0.238647,1.35059 0.623828,1.818836 0.117538,0.142885 0.383865,0.562199 0.591839,0.931809 0.207973,0.369611 0.528956,0.838039 0.713294,1.040952 0.184338,0.202913 0.412111,0.598472 0.506162,0.87902 0.09405,0.280548 0.286776,0.719407 0.428277,0.975243 0.141502,0.255836 0.310201,0.650251 0.374885,0.876478 0.06468,0.226226 0.157067,0.455801 0.205296,0.510167 0.04823,0.05437 0.08513,0.232063 0.082,0.394883 -0.0031,0.16282 0.146355,0.634282 0.332191,1.047691 0.376922,0.838497 0.966827,1.401458 1.478927,1.411376 0.159303,0.0031 0.423212,0.108767 0.58646,0.23485 0.271093,0.209375 0.446837,0.236067 2.027957,0.308007 1.243713,0.05659 1.731765,0.0463 1.733358,-0.03653 0.0016,-0.08166 0.584665,-0.104017 1.998605,-0.07663 2.166477,0.04196 2.403389,0.09485 2.961157,0.661045 0.463862,0.470873 1.018203,1.191597 1.015723,1.320586 -0.0041,0.212514 -1.164918,0.23753 -7.390836,0.159269 l -6.010666,-0.07556 -0.476704,-0.674819 C 49.413258,55.172034 48.87193,54.316477 48.609653,53.771223 48.310139,53.148557 48.147142,52.958748 46.100158,50.848952 44.594971,49.297578 43.4649,47.788995 43.131978,46.886597 42.983947,46.485353 42.677655,45.918061 42.451329,45.625951 42.225003,45.333839 41.930928,44.931669 41.79783,44.73224 c -0.133098,-0.19943 -0.321642,-0.453236 -0.418984,-0.564014 -0.250526,-0.285102 -0.82585,-1.572574 -0.947905,-2.12124 -0.419644,-1.8864 -0.501715,-2.244053 -0.579151,-2.523868 -0.04806,-0.173654 -0.08464,-0.458156 -0.08129,-0.632226 0.0062,-0.323269 -0.232154,-1.016253 -0.580675,-1.688125 -0.138629,-0.267247 -0.19109,-0.570659 -0.181839,-1.051695 0.0072,-0.371848 -0.01219,-0.676574 -0.04299,-0.67717 -0.124938,-0.0024 -0.762803,0.354719 -1.591531,0.891096 -1.054503,0.682504 -1.799105,1.443803 -2.894171,2.959071 -0.240513,0.332803 -0.646698,0.808119 -0.902632,1.056257 -0.255935,0.248139 -0.466296,0.481566 -0.46747,0.518726 -0.0012,0.03716 0.144442,0.195231 0.323588,0.351269 0.430579,0.375037 0.565599,0.642372 0.560956,1.110678 -0.0021,0.213113 0.08437,0.569589 0.192178,0.792169 0.154435,0.31884 0.192139,0.606423 0.177731,1.355618 -0.01739,0.90417 -0.03147,0.960465 -0.286332,1.144929 -0.295992,0.21423 -0.586364,0.769233 -0.769411,1.470621 -0.266281,1.020319 -0.199895,1.303613 0.653791,2.789998 0.250199,0.435632 0.505805,1.0158 0.568011,1.289261 0.06221,0.273461 0.154004,0.639313 0.203996,0.813004 0.04999,0.173692 0.08813,0.459323 0.08476,0.634737 -0.0034,0.175413 0.03916,0.348251 0.09451,0.384083 0.05536,0.03583 0.09863,0.16977 0.09618,0.297637 -0.0065,0.339175 0.08828,0.384424 0.336903,0.160809 0.121116,-0.108931 0.336194,-0.220618 0.477952,-0.248194 0.14176,-0.02757 0.358906,-0.09683 0.482548,-0.153895 0.142417,-0.06573 0.702745,-0.07361 1.528918,-0.0215 1.110905,0.07007 1.431498,0.131151 2.16392,0.412262 0.472894,0.181501 0.960225,0.332561 1.082959,0.335691 0.122735,0.0031 0.250598,0.05224 0.284141,0.109132 0.03354,0.05689 0.216012,0.106444 0.405484,0.110113 0.189472,0.0037 0.37194,0.05322 0.405484,0.110114 0.03354,0.05689 0.14472,0.105064 0.247058,0.107046 0.29213,0.0057 0.707912,0.270862 1.018291,0.649514 0.221196,0.269849 0.283509,0.45173 0.279715,0.816426 -0.0042,0.405584 -0.04038,0.48464 -0.266612,0.582836 -0.33425,0.145085 -2.81364,0.102832 -3.503643,-0.0597 -0.424421,-0.09998 -0.537891,-0.0947 -0.668164,0.03108 -0.140012,0.135186 -0.124258,0.175823 0.146176,0.377074 0.487432,0.362733 0.596545,0.70297 0.575551,1.794675 l -0.01877,0.976191 -3.233917,-0.07374 c -2.557547,-0.05832 -3.43561,-0.113983 -4.19827,-0.266165 z"
       id="path3066"
       style="fill:#000000" />
  </g>
</svg>
