<?xml version="1.0" encoding="UTF-8" standalone="no"?>
<!-- Created with Inkscape (http://www.inkscape.org/) -->

<svg
   xmlns:dc="http://purl.org/dc/elements/1.1/"
   xmlns:cc="http://creativecommons.org/ns#"
   xmlns:rdf="http://www.w3.org/1999/02/22-rdf-syntax-ns#"
   xmlns:svg="http://www.w3.org/2000/svg"
   xmlns="http://www.w3.org/2000/svg"
   xmlns:sodipodi="http://sodipodi.sourceforge.net/DTD/sodipodi-0.dtd"
   xmlns:inkscape="http://www.inkscape.org/namespaces/inkscape"
   version="1.1"
   width="64"
   height="64"
   id="svg3087"
   inkscape:version="0.48.5 r10040"
   sodipodi:docname="marmoset2.svg">
  <sodipodi:namedview
     pagecolor="#ffffff"
     bordercolor="#666666"
     borderopacity="1"
     objecttolerance="10"
     gridtolerance="10"
     guidetolerance="10"
     inkscape:pageopacity="0"
     inkscape:pageshadow="2"
     inkscape:window-width="640"
     inkscape:window-height="480"
     id="namedview7"
     showgrid="false"
     inkscape:zoom="3.6875"
     inkscape:cx="32"
     inkscape:cy="32"
     inkscape:window-x="0"
     inkscape:window-y="0"
     inkscape:window-maximized="0"
     inkscape:current-layer="svg3087" />
  <defs
     id="defs3089" />
  <metadata
     id="metadata3092">
    <rdf:RDF>
      <cc:Work
         rdf:about="">
        <dc:format>image/svg+xml</dc:format>
        <dc:type
           rdf:resource="http://purl.org/dc/dcmitype/StillImage" />
        <dc:title></dc:title>
      </cc:Work>
    </rdf:RDF>
  </metadata>
  <g
     id="layer1"
     transform="matrix(0.68815323,0,0,0.71962006,2.9282882,0.15498584)">
    <path
       d="M 21.345334,61.957389 C 19.613619,61.12203 17.973048,60.326121 17.699619,60.1887 c -0.813017,-0.408611 -1.97139,-2.346544 -2.509938,-4.199077 -0.277097,-0.953182 -0.71099,-1.905002 -0.964205,-2.115151 -0.253215,-0.210152 -0.556731,-0.82072 -0.674477,-1.356822 -0.11775,-0.536102 -0.812431,-2.054509 -1.543742,-3.374241 -1.915664,-3.457042 -2.9534986,-5.879513 -2.5188963,-5.879513 0.2031727,0 1.3036243,0.708429 2.4454493,1.574286 1.582117,1.199738 2.336942,2.076022 3.172649,3.683162 0.603134,1.159881 1.360356,2.293612 1.682713,2.519401 0.322357,0.225786 0.920082,1.069676 1.328276,1.875309 0.717845,1.416774 2.246194,3.483433 3.827046,5.174992 0.70986,0.759574 0.951478,0.809965 3.359409,0.700617 2.40944,-0.109422 2.886886,-0.264136 6.692272,-2.168607 4.58325,-2.293771 6.310158,-3.573596 7.224414,-5.354076 0.341955,-0.66594 1.231887,-1.868827 1.977628,-2.673081 0.745744,-0.804255 1.79504,-2.240407 2.331775,-3.191448 0.536736,-0.951038 1.506181,-2.306442 2.154329,-3.012003 1.189279,-1.29463 1.326261,-1.720907 1.663636,-5.177123 l 0.186024,-1.905715 -2.295862,0 c -2.249204,0 -2.309888,-0.02267 -2.985754,-1.116261 -0.379439,-0.613945 -0.692341,-1.471516 -0.69534,-1.905714 -0.0049,-0.715034 -0.07523,-0.677533 -0.745715,0.397784 -2.213018,3.549245 -1.897587,3.283747 -3.888833,3.273208 -1.002572,-0.0053 -2.190919,-0.213427 -2.640777,-0.462492 -0.471484,-0.261043 -1.278655,-0.378077 -1.905714,-0.276319 -0.979521,0.158953 -1.087795,0.09633 -1.087795,-0.629127 0,-1.100814 0.590271,-1.601079 1.889143,-1.601079 l 1.093714,0 0,-2.764681 0,-2.764681 -1.281309,-0.38389 c -1.765607,-0.52899 -4.142798,-0.480605 -5.564096,0.113252 -2.283381,0.954057 -3.57866,0.423559 -3.369973,-1.380211 0.127985,-1.106206 2.178971,-2.417267 3.794798,-2.425765 1.574305,-0.0083 1.874802,-0.61257 1.596571,-3.210662 C 29.19223,17.79361 29.312018,17.978763 26.131828,15.048755 24.70994,13.738728 22.06982,10.254754 21.217147,8.5632123 c -1.187595,-2.35596 -0.298779,-3.671529 2.701541,-3.998656 1.177807,-0.128415 1.888824,-0.457023 2.848999,-1.316702 1.039231,-0.9304595 1.459327,-1.1084069 2.237143,-0.9476242 0.526707,0.1088743 1.39034,0.2872889 1.919184,0.396478 0.780435,0.1611312 1.002942,0.068069 1.181367,-0.494097 0.259777,-0.8184861 3.190036,-1.79562029 4.893056,-1.63165599 l 1.08404,0.1043702 0.165714,2.60088899 0.165714,2.600886 1.217858,0.417179 c 0.669823,0.229448 1.788395,0.850661 2.485714,1.380473 0.697322,0.529815 2.295275,1.475987 3.551012,2.102606 1.574604,0.7857397 2.582246,1.5558437 3.246919,2.4814947 0.530074,0.738204 1.926223,2.346395 3.10256,3.573764 1.176336,1.22737 2.138794,2.505169 2.138794,2.839557 0,0.334389 0.294776,1.716462 0.655056,3.071279 0.928593,3.491919 0.886402,6.859541 -0.110933,8.854317 -0.429876,0.859798 -0.88209,2.216034 -1.004921,3.013855 -0.122831,0.797822 -0.442258,1.763151 -0.709837,2.145175 -0.267579,0.382021 -0.487194,1.071542 -0.488032,1.532271 -0.0017,0.928891 -1.73653,5.595356 -2.579602,6.938758 -0.296466,0.472409 -0.891536,1.293039 -1.32238,1.823627 -0.430844,0.530584 -1.427439,2.245726 -2.214662,3.811428 -0.787219,1.565699 -2.082213,3.517869 -2.877761,4.338155 -2.175669,2.243321 -5.206385,4.971428 -5.522866,4.971428 -0.153968,0 -0.630225,0.372858 -1.058347,0.828572 -0.428123,0.455714 -0.96629,0.828571 -1.195927,0.828571 -0.62883,0 -4.569555,1.741425 -4.84022,2.138918 -0.129883,0.190737 -1.621312,0.382999 -3.314285,0.427244 -3.046416,0.07962 -3.11059,0.0648 -6.226711,-1.438383 z M 23.499619,7.8010393 c 0.11266,-0.182285 0.04689,-0.331428 -0.146153,-0.331428 -0.193044,0 -0.350989,0.149143 -0.350989,0.331428 0,0.182286 0.06577,0.331429 0.146153,0.331429 0.08038,0 0.23833,-0.149143 0.350989,-0.331429 z m 1.242858,-2.20807 c -0.227858,-0.09194 -0.600715,-0.09194 -0.828572,0 -0.227857,0.09194 -0.04143,0.16717 0.414286,0.16717 0.455714,0 0.642143,-0.07523 0.414286,-0.16717 z"
       id="path3148"
       style="fill:#000000"
       inkscape:connector-curvature="0" />
  </g>
</svg>
